<?xml version="1.0" standalone="no"?>
<!DOCTYPE svg PUBLIC "-//W3C//DTD SVG 20010904//EN"
 "http://www.w3.org/TR/2001/REC-SVG-20010904/DTD/svg10.dtd">
<svg version="1.0" xmlns="http://www.w3.org/2000/svg"
 width="3264.000000pt" height="3264.000000pt" viewBox="0 0 3264.000000 3264.000000"
 preserveAspectRatio="xMidYMid meet">
<metadata>
Created by potrace 1.14, written by Peter Selinger 2001-2017
</metadata>
<g transform="translate(0.000000,3264.000000) scale(0.100000,-0.100000)"
fill="#000000" stroke="none">
<path d="M16787 31198 c-3 -18 -12 -60 -20 -93 -9 -33 -23 -91 -32 -130 -9
-38 -22 -95 -30 -125 -24 -99 -46 -194 -60 -255 -8 -33 -18 -78 -24 -100 -6
-22 -24 -96 -40 -165 -16 -69 -39 -164 -51 -211 -11 -48 -23 -97 -26 -110 -22
-96 -62 -264 -79 -336 -9 -35 -22 -93 -31 -130 -9 -38 -22 -95 -30 -128 -8
-33 -21 -87 -29 -120 -8 -33 -20 -85 -26 -115 -6 -30 -15 -64 -19 -75 -5 -11
-12 -40 -16 -65 -3 -25 -9 -49 -13 -55 -3 -5 -11 -35 -18 -65 -6 -30 -19 -86
-28 -125 -9 -38 -21 -95 -27 -125 -7 -30 -15 -57 -19 -60 -3 -3 -10 -33 -14
-68 -4 -34 -11 -64 -15 -67 -5 -3 -12 -30 -15 -60 -4 -31 -11 -57 -15 -60 -5
-3 -11 -32 -15 -65 -4 -33 -11 -62 -15 -65 -4 -3 -11 -29 -15 -58 -4 -28 -11
-56 -15 -62 -4 -5 -11 -35 -15 -65 -4 -30 -11 -59 -15 -65 -4 -5 -12 -35 -18
-65 -18 -88 -38 -174 -45 -190 -3 -8 -11 -40 -17 -70 -18 -87 -36 -164 -43
-180 -3 -8 -11 -40 -17 -70 -18 -87 -36 -164 -43 -180 -3 -8 -11 -37 -16 -65
-13 -63 -35 -160 -56 -245 -9 -36 -23 -92 -30 -125 -8 -33 -21 -89 -30 -125
-9 -36 -22 -92 -30 -125 -7 -33 -16 -69 -19 -80 -3 -11 -15 -60 -26 -110 -12
-49 -25 -106 -30 -125 -5 -19 -19 -75 -30 -125 -12 -49 -25 -106 -30 -125 -9
-32 -24 -98 -66 -280 -9 -36 -22 -90 -29 -120 -8 -30 -21 -86 -30 -125 -9 -38
-23 -95 -30 -125 -8 -30 -23 -95 -35 -145 -11 -49 -23 -99 -26 -110 -3 -11
-11 -47 -19 -80 -12 -53 -42 -176 -45 -182 -4 -10 -13 -51 -46 -198 -7 -33
-20 -89 -29 -125 -15 -61 -28 -117 -59 -250 -7 -30 -15 -62 -18 -70 -4 -8 -11
-40 -18 -70 -19 -92 -36 -164 -42 -180 -7 -16 -23 -91 -41 -185 -6 -33 -14
-62 -18 -65 -4 -3 -10 -30 -14 -60 -4 -30 -11 -59 -15 -65 -4 -5 -11 -32 -15
-60 -4 -27 -10 -54 -13 -60 -4 -5 -12 -35 -19 -65 -7 -30 -19 -84 -27 -120 -9
-36 -21 -90 -27 -120 -6 -30 -15 -62 -19 -71 -5 -9 -12 -38 -15 -65 -4 -27
-11 -53 -15 -59 -4 -5 -11 -35 -15 -65 -4 -30 -11 -59 -15 -65 -4 -5 -12 -35
-18 -65 -18 -88 -38 -174 -45 -190 -3 -8 -11 -37 -16 -65 -12 -57 -33 -150
-57 -245 -8 -36 -22 -92 -30 -125 -7 -33 -21 -89 -30 -125 -8 -36 -22 -92 -29
-125 -8 -33 -21 -87 -29 -120 -26 -107 -47 -199 -61 -260 -14 -62 -29 -124
-45 -185 -5 -19 -19 -75 -31 -125 -11 -49 -34 -144 -49 -210 -16 -66 -43 -178
-60 -250 -17 -71 -37 -157 -45 -190 -32 -134 -55 -233 -55 -241 0 -9 1505 -12
1514 -3 5 5 27 97 47 194 5 28 13 57 16 65 6 14 14 47 46 185 7 33 16 67 19
75 4 8 11 39 17 68 6 28 16 76 22 105 6 28 13 59 17 67 3 8 11 40 18 70 7 30
20 84 29 120 9 36 22 90 28 120 7 30 15 60 19 65 3 6 9 36 13 68 4 31 11 60
15 62 5 3 12 30 15 60 4 31 11 58 16 60 4 3 11 32 15 65 4 33 10 60 14 60 5 0
11 27 15 60 4 33 11 62 15 65 4 3 11 29 15 58 4 28 10 57 14 62 3 6 11 35 18
65 26 119 40 176 45 190 4 8 11 38 16 65 6 28 18 79 27 115 9 36 23 92 30 125
8 33 21 89 30 125 9 36 22 90 28 120 7 30 15 60 18 65 4 6 10 30 14 55 3 25
11 59 16 75 22 72 79 318 79 340 0 13 4 26 9 29 5 3 12 27 16 53 3 27 13 68
20 93 7 25 21 81 30 125 10 44 21 87 25 95 4 9 11 36 15 60 4 25 13 65 20 90
7 25 20 79 30 120 9 41 22 98 29 125 20 77 38 146 46 185 17 72 41 176 46 195
3 11 10 38 14 60 5 22 12 49 14 60 10 35 37 149 46 190 9 41 66 274 76 310 3
11 12 47 19 80 8 33 21 89 30 125 9 36 22 90 28 120 7 30 15 60 19 65 3 6 9
36 13 68 4 31 11 59 15 62 5 3 11 29 15 58 4 28 10 57 14 62 3 6 12 36 19 68
6 31 18 83 25 115 6 31 15 62 18 67 4 6 10 34 14 62 4 29 11 55 15 58 4 3 11
32 15 65 4 33 11 60 15 60 4 0 11 26 15 58 4 31 10 62 13 67 7 9 12 33 44 180
7 33 16 65 20 70 3 6 9 33 13 60 4 28 10 55 14 60 3 6 11 35 18 65 27 124 40
176 46 190 3 8 11 38 16 65 5 28 17 79 26 115 20 78 42 175 58 250 7 30 15 60
18 65 4 6 10 30 13 55 4 25 11 54 16 65 5 11 14 45 20 75 22 111 35 165 41
175 4 6 10 30 14 55 4 25 13 65 20 90 7 25 27 106 44 180 18 74 37 153 43 175
6 22 15 58 19 80 5 22 15 67 23 100 33 132 48 192 58 240 5 28 12 57 16 65 7
19 7 19 16 60 11 53 75 320 86 360 25 96 50 208 50 228 0 12 4 22 9 22 5 0 12
24 16 53 5 28 9 54 10 57 1 3 4 12 7 20 4 8 11 40 18 70 19 92 36 164 42 180
4 8 11 38 16 65 6 28 18 79 27 115 22 89 44 184 57 250 7 30 15 57 19 60 3 3
10 30 14 60 4 30 10 60 14 65 3 6 12 37 19 70 32 147 37 171 43 180 4 6 10 34
14 62 4 29 10 55 15 58 4 3 11 29 15 60 3 30 10 57 15 60 4 3 11 32 15 65 4
33 11 63 16 66 5 3 9 18 9 35 l0 29 -774 0 -774 0 -5 -32z"/>
<path d="M13455 29705 c-16 -7 -52 -23 -80 -35 -27 -12 -68 -30 -90 -40 -22
-10 -123 -54 -225 -98 -102 -44 -205 -88 -230 -99 -25 -11 -60 -26 -77 -33
-18 -7 -33 -17 -33 -22 0 -5 -5 -6 -10 -3 -6 4 -22 -1 -36 -10 -14 -9 -33 -18
-42 -20 -36 -7 -112 -45 -112 -55 0 -6 -4 -8 -10 -5 -5 3 -24 -1 -42 -9 -18
-8 -62 -28 -98 -44 -36 -16 -76 -33 -90 -37 -14 -4 -31 -12 -39 -18 -7 -6 -20
-12 -28 -13 -8 -1 -33 -11 -56 -22 -23 -11 -71 -32 -107 -47 -36 -15 -69 -31
-75 -35 -5 -4 -21 -11 -35 -15 -14 -4 -54 -21 -90 -37 -36 -16 -79 -36 -97
-44 -17 -8 -35 -14 -40 -14 -5 0 -14 -5 -21 -12 -6 -6 -20 -13 -29 -14 -9 -2
-26 -7 -38 -13 -48 -23 -157 -71 -163 -71 -4 -1 -25 -9 -47 -20 -22 -11 -45
-19 -51 -20 -5 0 -15 -5 -22 -12 -6 -6 -22 -13 -34 -15 -13 -2 -24 -8 -26 -13
-2 -6 -10 -10 -19 -10 -8 0 -27 -7 -41 -14 -15 -8 -45 -22 -67 -31 -22 -9 -53
-23 -70 -30 -16 -8 -52 -23 -80 -35 -27 -12 -59 -25 -70 -30 -11 -5 -42 -18
-70 -30 -27 -12 -64 -28 -82 -36 -17 -8 -36 -14 -42 -14 -6 0 -11 -4 -11 -10
0 -5 -8 -10 -17 -10 -9 0 -46 -14 -82 -31 -36 -17 -86 -39 -111 -50 -25 -11
-52 -24 -60 -28 -9 -5 -30 -12 -48 -16 -18 -3 -32 -11 -32 -16 0 -5 -5 -9 -11
-9 -9 0 -40 -13 -124 -50 -11 -5 -42 -18 -70 -30 -27 -12 -59 -25 -70 -30 -11
-5 -42 -18 -70 -30 -27 -12 -59 -25 -70 -30 -84 -37 -115 -50 -124 -50 -6 0
-11 -4 -11 -10 0 -5 -16 -12 -35 -16 -19 -3 -35 -10 -35 -15 0 -5 -5 -9 -11
-9 -6 0 -25 -6 -42 -14 -18 -8 -63 -28 -100 -45 -38 -17 -71 -31 -73 -31 -5 0
-55 -21 -131 -56 -17 -8 -35 -14 -41 -14 -5 0 -15 -7 -22 -15 -7 -8 -15 -13
-19 -10 -4 2 -18 -2 -32 -8 -13 -7 -64 -30 -114 -51 -49 -21 -113 -49 -141
-62 -27 -12 -72 -32 -100 -42 -27 -11 -62 -27 -79 -36 -16 -9 -33 -16 -37 -16
-4 0 -36 -13 -71 -30 -36 -16 -72 -30 -81 -30 -9 0 -16 -4 -16 -10 0 -5 -5
-10 -11 -10 -6 0 -27 -7 -47 -16 -21 -9 -56 -25 -79 -35 -24 -11 -62 -28 -85
-38 -24 -11 -77 -34 -118 -51 -41 -18 -98 -43 -125 -56 -28 -12 -63 -26 -78
-29 -15 -4 -27 -11 -27 -16 0 -5 -7 -9 -16 -9 -9 0 -45 -13 -81 -30 -35 -16
-69 -30 -74 -30 -5 0 -9 -5 -9 -11 0 -5 -4 -7 -10 -4 -5 3 -10 1 -10 -5 0 -6
-5 -8 -10 -5 -6 3 -27 -2 -48 -13 -53 -28 -128 -62 -135 -62 -3 0 -34 -13 -69
-29 -35 -15 -71 -31 -80 -34 -10 -4 -18 -11 -18 -17 0 -6 -4 -8 -10 -5 -5 3
-33 -5 -62 -18 -29 -13 -129 -57 -221 -97 -92 -39 -180 -78 -195 -86 -15 -8
-35 -14 -44 -14 -10 0 -18 -4 -18 -10 0 -5 -6 -10 -13 -10 -7 0 -29 -9 -50
-20 -20 -11 -37 -18 -37 -14 0 3 -12 -2 -27 -10 -16 -8 -50 -25 -78 -36 -27
-12 -63 -27 -80 -34 -16 -8 -45 -20 -62 -27 -18 -8 -33 -18 -33 -22 0 -5 -4
-6 -9 -3 -5 3 -22 -1 -37 -9 -16 -8 -34 -15 -41 -15 -6 0 -13 -5 -15 -10 -2
-6 -16 -13 -33 -16 -16 -3 -36 -10 -43 -17 -8 -6 -23 -13 -35 -14 -12 -2 -24
-7 -27 -12 -3 -4 -16 -11 -30 -14 -14 -4 -35 -15 -48 -25 l-23 -18 -1 -872 c0
-817 1 -873 18 -889 9 -10 22 -18 28 -18 19 -1 56 -16 56 -23 0 -4 12 -9 27
-10 15 -1 30 -7 33 -13 4 -6 13 -11 21 -13 8 -1 29 -10 47 -19 17 -10 32 -15
32 -12 0 4 12 -1 28 -9 38 -22 152 -72 182 -81 14 -4 34 -14 45 -21 11 -8 27
-14 37 -14 10 0 18 -4 18 -9 0 -5 14 -13 32 -16 17 -4 38 -14 46 -21 7 -8 18
-12 23 -9 5 4 9 2 9 -4 0 -6 7 -8 15 -5 8 4 15 2 15 -4 0 -9 47 -27 63 -24 4
1 7 -2 7 -8 0 -5 16 -12 35 -16 19 -3 35 -10 35 -15 0 -4 18 -14 40 -20 22 -7
40 -15 40 -18 0 -4 9 -7 21 -8 11 -1 27 -8 36 -14 8 -7 24 -14 35 -16 11 -2
29 -10 41 -18 12 -8 29 -15 39 -15 10 0 18 -4 18 -9 0 -8 46 -24 54 -19 2 2
13 -6 25 -16 12 -11 21 -16 21 -13 0 4 17 -2 38 -13 20 -10 44 -20 52 -22 8
-2 21 -9 28 -15 7 -7 24 -13 38 -13 13 0 24 -4 24 -9 0 -5 12 -12 28 -16 15
-3 35 -14 46 -23 10 -9 20 -16 22 -14 12 7 44 1 39 -8 -3 -5 3 -10 14 -10 12
0 21 -4 21 -8 0 -4 10 -8 22 -9 11 -1 25 -8 29 -15 5 -7 9 -9 9 -4 0 5 6 3 13
-3 8 -6 17 -8 20 -4 4 3 7 1 7 -5 0 -6 16 -14 35 -18 19 -3 35 -10 35 -15 0
-5 5 -9 11 -9 6 0 40 -13 76 -30 35 -16 67 -30 70 -30 2 0 35 -14 71 -32 37
-17 70 -32 75 -33 4 -2 9 -4 12 -5 6 -3 12 -5 43 -15 12 -4 22 -11 22 -16 0
-5 7 -6 15 -3 8 4 15 1 15 -4 0 -6 16 -14 35 -18 19 -3 35 -10 35 -14 0 -4 10
-11 23 -15 38 -12 41 -13 77 -27 19 -7 37 -16 40 -19 6 -8 53 -24 63 -21 4 1
7 -2 7 -8 0 -5 5 -10 11 -10 9 0 26 -7 157 -66 29 -13 57 -24 62 -24 6 0 10
-4 10 -8 0 -5 6 -9 13 -9 6 0 33 -10 60 -21 26 -12 49 -20 51 -19 1 1 10 -4
19 -12 10 -7 17 -10 17 -6 0 5 8 1 18 -8 10 -10 22 -14 25 -10 4 3 7 0 7 -7 0
-7 3 -11 6 -8 3 4 35 -7 72 -24 37 -16 87 -39 112 -49 25 -11 53 -25 62 -30
10 -5 25 -9 33 -9 8 0 15 -5 15 -11 0 -5 4 -8 9 -4 5 3 17 -3 27 -12 10 -10
19 -16 21 -15 6 6 117 -40 124 -51 3 -5 8 -7 10 -6 2 2 24 -5 49 -16 25 -10
48 -18 53 -17 4 1 7 -2 7 -8 0 -5 8 -10 18 -10 10 0 27 -7 38 -15 10 -8 29
-15 42 -15 12 0 22 -4 22 -9 0 -8 27 -19 40 -17 3 0 21 -9 41 -22 20 -12 39
-19 42 -15 4 3 7 0 7 -7 0 -7 3 -10 6 -7 4 3 16 1 28 -5 11 -7 24 -11 29 -10
4 1 7 -3 7 -9 0 -5 4 -8 9 -4 5 3 15 0 23 -7 7 -7 18 -13 23 -13 6 -1 26 -8
45 -17 122 -57 157 -72 175 -75 10 -2 22 -7 25 -12 3 -4 17 -11 32 -14 15 -4
33 -13 40 -20 7 -8 19 -12 26 -9 6 2 12 -1 12 -8 0 -6 4 -9 9 -5 5 3 12 1 16
-5 3 -5 15 -10 26 -10 10 0 19 -5 19 -12 0 -6 3 -8 6 -5 4 4 19 0 33 -7 48
-25 113 -50 124 -48 4 1 7 -2 7 -7 0 -7 13 -14 50 -25 3 -1 12 -6 20 -11 8 -5
20 -10 25 -11 6 -1 32 -11 58 -23 73 -33 101 -44 110 -43 4 1 7 -2 7 -8 0 -5
9 -10 20 -10 11 0 20 -5 20 -11 0 -5 4 -7 10 -4 5 3 20 -1 32 -9 12 -9 30 -16
39 -16 9 0 19 -6 22 -13 2 -7 17 -13 33 -15 16 -1 32 -9 36 -17 5 -8 15 -12
23 -9 8 4 15 1 15 -5 0 -6 3 -10 8 -9 4 1 21 -5 37 -12 17 -7 36 -14 44 -16 8
-1 17 -6 20 -11 3 -4 12 -9 19 -10 6 -2 18 -4 24 -5 7 -2 19 -9 26 -15 7 -7
20 -13 28 -13 17 0 56 -21 66 -35 4 -5 8 -7 8 -2 0 4 15 0 33 -10 17 -9 36
-16 41 -15 5 2 12 -2 16 -8 4 -6 13 -12 21 -14 28 -5 59 -18 59 -24 0 -4 12
-9 27 -10 15 -1 29 -6 32 -11 7 -9 52 -26 64 -23 4 1 7 -2 7 -8 0 -5 6 -10 13
-10 6 -1 30 -9 52 -20 22 -11 45 -19 51 -20 6 0 17 -7 24 -15 6 -8 15 -14 18
-13 12 3 82 -26 82 -34 0 -4 7 -5 15 -2 8 4 15 1 15 -5 0 -6 5 -11 10 -11 6 0
26 -7 46 -15 19 -8 35 -14 37 -13 1 0 23 -11 48 -25 26 -15 49 -24 51 -21 3 3
22 -5 42 -17 20 -11 36 -18 36 -14 0 3 7 -1 16 -9 8 -9 26 -16 39 -16 12 0 25
-7 29 -15 3 -8 9 -14 13 -13 16 3 63 -14 63 -24 0 -5 4 -7 9 -3 5 3 12 1 16
-5 4 -6 11 -8 16 -5 5 4 9 1 9 -4 0 -6 9 -11 20 -11 11 0 20 -4 20 -8 0 -5 6
-9 13 -10 20 -1 84 -27 99 -40 8 -6 18 -9 21 -5 4 3 7 0 7 -7 0 -7 3 -10 6 -7
4 3 16 1 28 -5 11 -7 24 -11 29 -10 4 1 7 -2 7 -8 0 -5 7 -7 15 -4 8 4 15 1
15 -5 0 -6 7 -11 15 -11 8 0 29 -8 47 -18 18 -10 56 -27 83 -37 28 -10 58 -25
68 -33 9 -8 17 -12 17 -7 0 4 6 3 13 -3 6 -6 14 -11 17 -11 36 -9 50 -15 50
-24 0 -6 3 -7 7 -4 3 4 17 0 30 -8 13 -9 23 -13 23 -9 0 4 7 1 15 -6 8 -7 15
-9 15 -6 0 4 12 -1 28 -12 15 -10 33 -17 40 -15 6 3 12 0 12 -6 0 -5 16 -13
35 -17 19 -3 35 -10 35 -14 0 -7 21 -16 57 -25 6 -2 21 -10 33 -18 12 -8 30
-13 41 -10 19 5 19 25 19 1032 l0 1027 -32 19 c-18 10 -33 18 -33 16 0 -1 -13
3 -30 9 -16 6 -31 11 -33 11 -1 -1 -15 5 -31 13 -16 9 -31 12 -35 9 -3 -4 -6
-1 -6 5 0 7 -3 11 -7 10 -5 -1 -25 6 -47 15 -21 9 -42 17 -45 17 -4 0 -26 9
-49 20 -22 11 -51 20 -62 20 -12 0 -18 4 -15 11 4 6 1 9 -6 8 -8 -1 -27 4 -44
11 -16 7 -35 14 -41 15 -14 3 -80 31 -117 51 -16 8 -33 12 -38 8 -5 -3 -9 0
-9 7 0 7 -3 9 -7 6 -3 -4 -17 0 -30 8 -13 9 -28 13 -33 10 -6 -3 -10 -2 -10 3
0 9 -29 23 -55 26 -5 1 -25 9 -44 19 -18 9 -37 14 -42 11 -5 -3 -9 0 -9 5 0 6
-3 10 -7 9 -8 -1 -24 5 -98 37 -16 7 -50 21 -75 30 -25 9 -56 22 -70 28 -14 6
-28 11 -32 12 -5 2 -10 4 -13 5 -3 1 -8 3 -12 5 -15 4 -88 36 -106 46 -10 5
-22 7 -27 4 -6 -4 -10 -1 -10 4 0 6 -8 11 -18 11 -10 0 -22 3 -26 8 -4 4 -11
7 -14 8 -4 0 -20 7 -37 14 -16 7 -35 14 -42 16 -7 1 -26 9 -44 18 -17 9 -35
13 -40 10 -5 -3 -9 0 -9 5 0 6 -9 11 -19 11 -11 0 -21 4 -23 9 -2 6 -16 12
-31 15 -16 3 -35 10 -43 17 -8 6 -14 8 -14 4 0 -4 -7 -2 -15 5 -8 6 -18 9 -23
6 -6 -3 -15 1 -22 9 -7 8 -27 17 -46 21 -19 3 -34 10 -34 14 0 5 -18 11 -40
15 -22 4 -40 11 -40 16 0 5 -4 9 -9 9 -5 0 -22 5 -38 12 -15 6 -31 12 -35 12
-3 1 -10 4 -14 9 -4 4 -18 7 -31 7 -14 0 -21 4 -18 10 3 6 -3 10 -14 10 -33 0
-35 1 -53 17 -10 9 -18 13 -18 8 0 -4 -7 -2 -15 5 -8 7 -15 9 -15 5 0 -4 -11
0 -25 9 -14 9 -25 14 -25 10 0 -4 -7 -1 -15 6 -8 6 -18 9 -24 6 -5 -3 -12 1
-15 10 -4 9 -9 14 -12 11 -3 -3 -43 10 -87 30 -45 19 -90 36 -100 37 -9 1 -23
8 -29 14 -7 7 -18 12 -25 12 -12 0 -59 19 -128 51 -11 6 -30 11 -43 12 -12 0
-22 4 -22 8 0 9 -62 31 -68 24 -3 -2 -10 3 -17 11 -6 9 -23 17 -38 17 -15 0
-32 6 -38 13 -6 7 -26 16 -45 20 -19 3 -34 10 -34 15 0 5 -8 9 -17 9 -10 1
-36 9 -58 20 -22 11 -46 19 -53 20 -7 0 -24 7 -37 16 -14 9 -25 13 -25 10 0
-4 -12 -1 -27 7 -45 23 -106 49 -127 53 -11 2 -22 7 -25 11 -5 7 -19 12 -46
17 -5 1 -14 4 -20 8 -5 3 -41 18 -80 33 -105 40 -106 40 -159 64 -26 12 -51
19 -54 16 -3 -3 -13 2 -22 10 -10 9 -26 17 -36 19 -19 4 -114 42 -192 77 -23
10 -51 19 -61 19 -11 0 -21 4 -23 10 -1 5 -12 11 -23 13 -11 2 -36 10 -55 19
-49 22 -174 73 -180 73 -3 0 -39 15 -80 32 -41 17 -84 33 -95 35 -11 1 -23 7
-26 11 -3 5 -12 10 -20 11 -16 3 -32 10 -106 42 -29 13 -53 20 -53 17 0 -3 -6
-1 -12 4 -7 5 -51 25 -98 42 -47 18 -109 44 -138 57 -29 13 -58 23 -65 21 -6
-1 -12 5 -12 13 0 8 5 15 10 15 6 1 19 6 31 12 11 7 32 14 45 17 13 2 37 11
53 20 16 8 33 13 37 11 4 -3 12 2 19 10 7 8 20 15 29 15 9 0 29 7 45 15 16 9
31 13 33 11 3 -3 21 4 40 15 19 11 38 17 43 14 4 -3 10 0 12 5 2 6 13 12 26
13 12 0 22 5 22 9 0 4 8 8 18 8 9 0 30 7 46 15 16 9 37 17 47 18 9 2 24 9 32
15 8 7 19 12 23 10 5 -1 26 6 48 15 21 9 44 17 50 17 6 0 21 7 32 15 12 8 32
16 46 19 14 2 34 9 44 14 33 17 78 35 97 39 10 2 31 10 48 18 16 9 34 13 39
10 6 -3 10 -2 10 3 0 9 19 18 57 27 7 2 26 10 42 18 17 9 44 18 61 22 16 4 32
11 35 16 4 5 13 9 22 9 8 0 29 6 46 14 76 32 114 47 127 50 8 2 32 10 52 20
21 9 44 16 52 16 8 0 16 5 18 10 2 6 18 11 35 13 18 1 35 8 38 15 2 6 12 12
22 12 10 1 36 9 58 20 22 11 45 19 51 20 6 0 25 7 42 16 18 8 36 13 42 9 6 -3
13 1 16 10 4 9 13 14 20 11 7 -3 16 -1 19 4 4 6 15 10 26 10 10 0 19 5 19 10
0 6 6 10 14 10 8 0 27 5 43 12 15 7 33 12 38 13 6 1 32 11 58 24 27 12 51 20
55 17 3 -3 12 0 20 6 12 10 59 31 97 42 6 2 19 7 30 11 11 4 52 20 90 35 39
15 79 31 90 35 11 5 22 9 25 9 27 6 137 52 142 60 4 6 8 8 8 4 0 -4 39 9 87
27 47 19 90 32 95 29 4 -3 8 0 8 5 0 6 9 11 19 11 11 0 21 3 23 8 2 4 28 15
58 26 30 10 66 23 80 29 14 6 27 11 30 12 5 2 15 5 55 21 11 4 22 8 25 9 20 7
48 18 65 26 12 6 27 11 35 13 15 3 24 6 102 39 20 8 39 13 42 9 3 -3 6 0 6 7
0 7 7 11 15 8 8 -4 17 -2 19 2 5 8 121 55 141 57 6 0 28 9 50 19 22 10 49 21
60 25 11 5 52 20 90 35 39 15 76 28 83 28 6 0 12 4 12 9 0 4 7 8 16 8 9 0 30
6 47 14 86 38 190 75 198 70 5 -3 9 0 9 5 0 6 9 11 20 11 11 0 20 5 20 10 0 6
6 10 14 10 15 0 185 62 221 81 12 5 27 11 35 13 8 1 32 10 54 19 21 9 44 17
50 17 7 0 16 4 21 8 6 5 39 19 75 32 36 13 69 27 75 32 5 4 15 8 21 8 7 0 25
5 41 12 15 6 33 12 40 14 7 1 27 9 44 18 18 9 36 16 40 16 4 0 20 5 36 12 15
6 30 12 33 13 3 1 20 8 38 14 l32 13 0 1039 0 1039 -22 0 c-13 0 -36 -7 -53
-15z"/>
<path d="M18990 28685 l0 -1025 38 -16 c20 -9 66 -26 102 -39 36 -13 88 -34
115 -46 28 -12 59 -24 70 -26 11 -2 24 -8 29 -13 6 -6 15 -10 22 -10 6 0 33
-10 60 -22 27 -12 57 -23 66 -25 9 -1 41 -14 72 -28 30 -14 59 -25 64 -25 4 0
26 -9 48 -19 21 -11 42 -17 46 -14 5 2 8 -1 8 -8 0 -7 3 -9 7 -6 3 4 11 3 17
-1 6 -5 30 -14 54 -22 23 -7 42 -17 42 -22 0 -5 4 -7 9 -4 5 3 22 -1 37 -9 16
-8 37 -15 46 -15 9 0 19 -4 22 -9 3 -5 18 -12 33 -16 16 -3 37 -14 47 -23 11
-9 16 -11 12 -4 -6 10 -4 11 10 4 42 -21 96 -42 109 -42 8 0 15 -4 15 -9 0 -5
13 -11 30 -14 16 -4 49 -15 72 -25 24 -10 59 -25 78 -32 19 -7 49 -19 67 -26
17 -8 36 -14 42 -14 6 0 11 -4 11 -8 0 -5 6 -9 14 -9 24 0 106 -34 106 -44 0
-6 4 -8 9 -5 10 7 103 -25 112 -37 3 -5 8 -8 10 -7 2 1 18 -4 34 -10 17 -7 35
-13 40 -15 6 -1 26 -8 45 -16 19 -7 38 -12 43 -11 4 1 7 -3 7 -8 0 -6 8 -10
18 -10 9 0 29 -6 44 -14 15 -8 41 -17 58 -21 17 -4 33 -12 36 -18 2 -7 14 -13
27 -14 12 0 40 -9 62 -19 22 -10 43 -17 48 -16 4 1 7 -3 7 -8 0 -6 10 -10 23
-10 12 0 33 -6 47 -13 37 -19 119 -49 123 -45 2 2 11 -3 20 -11 10 -7 17 -10
17 -5 0 5 4 5 8 -1 7 -11 62 -34 100 -42 12 -3 22 -10 22 -15 0 -5 5 -6 10 -3
6 4 16 3 23 -2 7 -5 39 -19 72 -32 33 -13 74 -29 90 -36 17 -7 55 -21 85 -31
30 -11 59 -25 63 -32 5 -7 12 -10 17 -7 5 3 30 -3 54 -15 25 -11 49 -20 54
-20 5 0 23 -7 38 -15 16 -8 36 -15 45 -15 9 0 20 -7 23 -16 3 -8 10 -13 16 -9
5 3 30 -3 54 -15 25 -11 49 -20 54 -20 5 0 23 -7 38 -15 16 -8 37 -15 46 -15
9 0 18 -5 20 -12 4 -10 14 -13 66 -20 6 -1 12 -5 12 -10 0 -4 9 -8 20 -8 11 0
20 -5 20 -11 0 -5 4 -7 10 -4 5 3 21 -2 35 -11 14 -9 25 -13 25 -9 0 4 7 1 17
-6 9 -8 17 -12 17 -11 1 4 26 -5 84 -30 15 -6 36 -13 46 -15 11 -2 26 -9 34
-15 8 -7 24 -14 35 -15 31 -5 77 -26 77 -36 0 -5 5 -5 10 -2 6 4 16 2 23 -3 7
-5 45 -21 86 -35 40 -14 76 -29 80 -34 3 -4 17 -10 31 -11 14 -2 29 -8 35 -13
5 -5 16 -9 25 -9 8 0 32 -9 53 -20 20 -11 43 -20 50 -20 19 0 67 -24 67 -33 0
-5 4 -6 9 -2 5 3 27 -2 48 -11 45 -20 59 -26 133 -54 30 -12 73 -29 95 -38 21
-10 42 -17 45 -18 3 0 18 -6 33 -12 16 -7 35 -12 43 -12 8 0 14 -4 14 -8 0 -4
17 -13 38 -19 56 -16 106 -37 113 -46 3 -5 8 -7 10 -6 8 5 109 -35 109 -43 0
-5 -8 -11 -17 -14 -10 -3 -33 -13 -52 -22 -19 -9 -39 -17 -45 -17 -6 -1 -24
-7 -41 -13 -85 -34 -113 -46 -140 -57 -16 -7 -47 -18 -67 -25 -21 -6 -38 -16
-38 -21 0 -6 -4 -7 -10 -4 -5 3 -16 3 -22 -2 -7 -4 -19 -8 -27 -10 -8 -1 -17
-7 -21 -13 -4 -7 -10 -10 -13 -8 -9 5 -107 -36 -107 -45 0 -4 -4 -6 -9 -3 -5
4 -31 -4 -58 -16 -26 -11 -53 -22 -59 -23 -5 -2 -39 -15 -75 -29 -35 -15 -72
-29 -81 -31 -9 -2 -27 -9 -40 -16 -13 -7 -31 -14 -41 -16 -10 -2 -29 -10 -42
-19 -14 -9 -25 -13 -25 -9 0 4 -11 0 -25 -9 -13 -9 -29 -16 -35 -16 -6 0 -27
-7 -48 -17 -20 -9 -40 -17 -44 -18 -5 -2 -10 -4 -13 -5 -3 -1 -8 -3 -12 -5
-11 -2 -63 -23 -88 -34 -17 -8 -48 -20 -65 -26 -3 -1 -14 -5 -25 -9 -11 -4
-32 -12 -47 -18 -16 -6 -28 -15 -28 -20 0 -5 -4 -7 -9 -4 -12 8 -71 -14 -71
-26 0 -5 -4 -6 -10 -3 -5 3 -29 -4 -52 -16 -24 -12 -43 -21 -43 -20 0 1 -13
-3 -30 -10 -16 -7 -39 -14 -49 -16 -11 -2 -27 -10 -36 -18 -9 -8 -19 -13 -22
-10 -6 7 -58 -15 -58 -24 0 -4 -8 -7 -17 -8 -24 -1 -117 -36 -121 -45 -2 -5
-12 -8 -22 -8 -10 0 -21 -4 -25 -10 -3 -5 -12 -7 -20 -3 -8 3 -15 1 -15 -4 0
-5 -26 -17 -57 -28 -32 -11 -61 -23 -64 -28 -3 -5 -10 -8 -15 -8 -14 1 -78
-20 -91 -31 -6 -5 -24 -11 -40 -14 -15 -3 -29 -9 -31 -15 -2 -5 -11 -9 -20 -9
-9 0 -29 -6 -44 -14 -15 -8 -41 -17 -58 -21 -17 -4 -34 -13 -37 -21 -3 -8 -9
-11 -14 -8 -5 3 -30 -4 -55 -15 -26 -12 -53 -21 -60 -21 -8 0 -14 -4 -14 -10
0 -5 -10 -10 -23 -10 -13 0 -27 -3 -31 -7 -4 -5 -11 -8 -14 -9 -4 0 -20 -7
-37 -14 -16 -7 -32 -14 -35 -15 -3 0 -16 -7 -30 -15 -14 -7 -27 -13 -30 -12
-6 2 -87 -28 -120 -45 -14 -7 -33 -13 -42 -13 -9 0 -20 -4 -23 -10 -3 -5 -15
-10 -26 -10 -10 0 -19 -5 -19 -11 0 -6 -6 -9 -14 -6 -7 3 -19 0 -25 -6 -6 -6
-19 -12 -28 -13 -9 -2 -26 -7 -38 -13 -24 -11 -58 -24 -67 -25 -3 -1 -10 -4
-14 -8 -4 -5 -16 -8 -26 -8 -10 0 -18 -4 -18 -10 0 -5 -3 -9 -7 -8 -9 1 -28
-5 -88 -30 -21 -10 -41 -16 -42 -14 -2 1 -18 -5 -36 -15 -17 -9 -35 -16 -39
-15 -5 1 -8 -3 -8 -9 0 -5 -5 -7 -10 -4 -6 4 -16 2 -23 -3 -7 -5 -27 -13 -45
-17 -18 -4 -35 -12 -38 -18 -2 -7 -16 -13 -29 -13 -14 -1 -32 -8 -41 -15 -9
-7 -23 -14 -32 -15 -15 -1 -134 -47 -202 -76 -14 -6 -34 -13 -45 -15 -10 -2
-22 -7 -25 -11 -3 -4 -24 -14 -47 -20 -24 -7 -43 -17 -43 -22 0 -5 -7 -7 -15
-4 -8 4 -15 1 -15 -5 0 -6 -6 -8 -14 -5 -7 3 -20 -1 -27 -8 -8 -7 -23 -14 -34
-16 -30 -5 -75 -26 -75 -35 0 -5 -4 -5 -10 -2 -5 3 -20 0 -32 -7 -13 -7 -26
-11 -30 -10 -5 1 -8 -3 -8 -9 0 -5 -4 -8 -10 -4 -8 5 -45 -10 -60 -25 -3 -3
-9 -5 -15 -5 -25 -1 -95 -29 -95 -38 0 -6 -3 -7 -6 -4 -4 3 -16 1 -28 -5 -11
-7 -23 -13 -26 -13 -35 -9 -60 -19 -60 -24 0 -4 -6 -8 -12 -9 -29 -2 -49 -9
-59 -19 -6 -6 -18 -9 -25 -6 -8 3 -14 1 -14 -4 0 -5 -6 -10 -12 -10 -7 0 -35
-10 -63 -23 -27 -12 -57 -24 -65 -25 -8 -1 -33 -10 -55 -21 l-40 -19 -3 -1028
c-2 -1135 -7 -1056 61 -1024 65 31 132 60 145 63 7 1 24 10 38 19 14 9 28 14
31 11 3 -3 18 3 33 14 16 11 34 20 42 20 7 0 23 7 35 15 12 8 31 16 43 18 12
2 25 8 28 13 4 5 14 10 22 12 8 2 33 12 56 23 24 10 48 19 53 19 6 0 11 5 11
12 0 6 3 9 6 5 4 -3 19 0 35 9 16 8 31 14 34 14 3 0 27 11 54 24 27 14 51 23
53 20 3 -2 11 2 18 11 7 8 23 15 36 15 13 0 24 4 24 10 0 5 12 13 28 16 15 4
36 13 47 20 11 7 22 12 25 12 6 -2 73 28 123 54 20 10 37 16 37 12 0 -4 9 1
20 11 11 10 20 15 20 11 0 -3 15 1 33 11 17 9 34 18 37 18 3 1 23 9 45 19 22
10 51 23 65 29 14 5 27 11 30 13 3 1 15 5 28 9 12 4 22 11 22 16 0 5 6 9 14 9
8 0 27 5 43 12 15 6 30 12 33 13 23 8 46 20 50 27 3 4 15 9 25 11 11 1 27 7
35 12 8 5 20 10 25 11 6 1 44 17 85 36 41 19 84 39 95 43 11 5 22 9 25 10 3 2
15 6 28 10 12 4 22 11 22 16 0 5 3 8 8 7 15 -3 62 15 62 24 0 5 4 7 9 3 5 -3
13 0 16 6 4 5 13 8 21 5 8 -3 14 -1 14 3 0 5 14 14 30 20 17 5 30 7 30 4 0 -4
7 2 15 13 8 10 15 16 15 11 0 -4 15 0 33 10 17 9 34 18 37 18 25 5 50 18 50
27 0 6 3 9 6 5 6 -6 71 19 138 54 21 11 41 17 44 14 3 -3 13 2 22 10 10 9 28
18 40 20 13 3 26 8 29 12 3 5 11 9 16 10 6 1 37 14 70 29 33 16 65 28 71 29 6
0 22 8 37 18 14 9 32 17 39 17 8 0 23 7 35 15 12 8 31 16 42 18 12 2 27 9 33
15 7 7 16 12 21 12 10 0 69 25 108 46 14 7 29 11 33 7 3 -3 6 -1 6 6 0 7 4 10
9 6 5 -3 15 1 23 8 7 8 19 12 26 9 6 -2 12 1 12 6 0 9 47 27 63 24 4 -1 7 2 7
8 0 6 3 9 8 8 4 0 30 10 57 23 28 13 52 24 55 24 3 1 22 9 43 18 20 9 38 16
40 15 1 -1 13 5 27 12 14 8 28 13 33 12 4 -1 7 3 7 9 0 6 7 9 15 5 8 -3 15 -1
15 5 0 6 5 7 10 4 6 -3 10 -1 10 5 0 6 4 9 9 6 5 -4 11 -1 13 4 2 6 13 12 26
13 12 0 22 4 22 8 0 4 10 11 23 14 23 7 73 28 120 52 15 8 27 11 27 7 0 -4 8
0 18 9 10 9 27 18 38 20 10 1 26 7 34 12 8 5 17 10 20 10 3 1 21 8 40 17 79
35 125 53 132 50 5 -1 8 2 8 7 0 5 10 13 23 16 12 4 50 20 85 36 35 16 74 32
88 35 13 3 24 10 24 15 0 5 3 8 8 7 4 -1 20 4 35 10 16 7 33 12 38 12 5 0 9 5
9 10 0 6 6 10 13 9 19 -2 57 12 57 22 0 5 7 9 15 9 8 0 43 14 77 30 34 17 67
30 74 30 7 0 20 7 28 16 9 8 16 12 16 8 0 -3 7 -1 15 6 8 7 15 9 15 6 0 -4 12
0 28 8 50 28 162 75 162 68 0 -4 4 -2 8 4 8 12 123 60 135 56 4 -1 7 2 7 8 0
5 9 10 20 10 11 0 20 5 20 10 0 6 9 10 19 10 11 0 23 4 26 10 3 5 24 14 45 20
22 6 40 14 40 19 0 4 6 8 13 8 6 0 39 13 72 28 33 16 66 28 73 26 6 -1 12 3
12 9 0 5 6 10 13 10 7 0 38 12 67 26 47 23 94 44 110 49 20 7 53 21 106 46 33
16 66 29 72 29 7 0 12 4 12 8 0 5 6 9 13 9 6 0 33 10 59 21 26 12 52 22 57 22
6 0 11 5 11 11 0 5 4 8 9 4 5 -3 12 -1 16 5 4 6 10 8 15 5 4 -3 13 2 20 10 7
8 20 15 29 15 9 0 25 6 36 14 11 7 22 14 25 14 8 1 53 19 105 43 28 13 55 23
61 24 6 0 18 6 27 13 8 7 25 15 38 17 12 3 26 9 29 15 4 6 11 10 16 9 15 -5
54 12 54 22 0 5 8 9 18 9 10 0 27 7 39 15 12 8 31 16 43 18 12 2 25 9 29 16 4
7 12 11 17 10 10 -2 25 3 119 46 33 14 76 33 95 41 19 8 43 19 52 24 10 6 24
10 32 10 8 0 22 7 30 16 9 8 16 13 16 9 0 -3 17 2 38 13 36 19 92 44 102 47 6
1 58 24 139 62 30 14 61 27 70 28 9 2 17 4 19 5 1 2 7 3 12 4 6 0 14 7 19 14
5 8 10 13 12 12 9 -3 58 20 65 31 9 15 10 1695 1 1731 -5 19 -16 28 -37 33
-16 4 -30 11 -30 16 0 6 -6 9 -12 8 -20 -2 -58 12 -58 22 0 5 -7 9 -15 9 -9 0
-46 14 -83 31 -36 17 -71 32 -77 33 -5 1 -17 6 -25 11 -23 15 -123 55 -137 55
-7 0 -13 5 -13 10 0 6 -6 10 -12 10 -7 1 -31 9 -53 20 -22 11 -43 19 -47 20
-7 0 -31 10 -181 79 -37 17 -70 31 -73 31 -7 0 -80 33 -124 55 -14 7 -28 14
-32 14 -4 1 -37 15 -72 31 -35 17 -67 30 -69 30 -3 0 -35 14 -70 30 -36 17
-68 30 -70 30 -3 0 -35 14 -70 30 -36 17 -68 30 -71 30 -2 0 -43 18 -90 40
-47 22 -88 40 -91 40 -3 0 -32 12 -63 26 -31 14 -73 33 -92 41 -19 8 -53 23
-75 33 -22 10 -96 42 -165 71 -69 29 -129 56 -135 61 -5 4 -14 8 -21 8 -7 0
-50 17 -96 39 -79 36 -117 53 -128 55 -3 1 -27 12 -55 25 -27 13 -59 27 -70
32 -11 4 -51 22 -88 38 -38 17 -71 31 -73 31 -3 0 -31 12 -62 26 -31 15 -63
27 -69 27 -7 0 -13 3 -13 7 0 3 -17 12 -37 19 -21 8 -72 29 -113 48 -41 19
-86 39 -100 45 -14 5 -38 16 -55 23 -16 8 -52 23 -80 35 -97 42 -120 51 -140
60 -11 5 -42 18 -70 30 -58 25 -68 29 -158 69 -38 17 -79 34 -93 37 -13 3 -24
10 -24 15 0 5 -7 9 -15 9 -8 0 -43 14 -77 30 -34 17 -65 30 -69 30 -4 0 -42
16 -86 36 -88 40 -98 45 -168 74 -131 56 -176 76 -217 97 -14 7 -33 13 -42 13
-9 0 -16 4 -16 9 0 5 -15 12 -34 15 -19 4 -36 10 -38 14 -4 9 -109 52 -126 52
-6 0 -12 5 -12 10 0 6 -6 10 -12 10 -7 1 -31 9 -53 20 -22 10 -43 17 -46 14
-4 -2 -12 3 -19 11 -7 8 -17 15 -22 15 -5 0 -30 9 -56 21 -26 11 -63 27 -82
35 -19 8 -47 22 -63 30 -15 8 -32 12 -37 9 -6 -3 -10 -2 -10 4 0 5 -10 13 -22
16 -13 4 -41 15 -63 25 -22 10 -71 33 -108 50 -37 17 -72 28 -78 25 -5 -4 -9
-2 -9 3 0 7 -109 62 -124 62 -3 0 -35 14 -73 31 -90 40 -100 44 -158 69 -27
12 -59 25 -70 30 -77 34 -144 64 -240 105 -60 26 -128 55 -150 65 -68 30 -107
48 -172 74 -66 27 -150 65 -219 97 -22 10 -48 19 -57 19 -9 0 -17 5 -17 10 0
6 -5 10 -11 10 -11 0 -28 7 -142 59 -37 17 -70 31 -73 31 -3 0 -24 9 -47 19
-122 55 -160 70 -167 66 -5 -3 -10 -1 -12 5 -3 11 -253 120 -274 120 -12 0
-14 -155 -14 -1025z"/>
<path d="M3414 24328 c-4 -6 -7 -2317 -7 -5135 0 -2819 -3 -5121 -6 -5116 -3
4 -15 10 -26 11 -11 2 -23 9 -27 15 -4 7 -8 8 -8 3 0 -5 -6 -3 -13 3 -8 6 -17
8 -20 4 -4 -3 -7 -1 -7 5 0 7 -7 12 -15 12 -8 0 -15 5 -15 12 0 6 -3 9 -6 6
-3 -4 -38 10 -77 29 -40 20 -78 36 -84 36 -7 0 -13 3 -13 7 0 3 -16 12 -35 20
-19 8 -35 18 -35 22 0 5 -4 7 -10 3 -5 -3 -41 10 -80 30 -38 19 -72 36 -75 36
-25 4 -45 13 -45 20 0 5 -7 6 -15 3 -8 -4 -15 -1 -15 6 0 7 -7 10 -15 6 -8 -3
-15 -1 -15 3 0 11 -56 31 -64 24 -3 -4 -6 -1 -6 5 0 7 -5 12 -10 12 -6 0 -27
7 -48 17 -20 9 -40 17 -44 18 -5 2 -10 4 -13 5 -3 1 -8 3 -12 5 -8 2 -19 6
-83 32 -37 15 -67 24 -87 25 -7 1 -13 6 -13 13 0 6 -8 11 -17 12 -27 2 -46 8
-63 18 -16 10 -35 16 -60 17 -8 1 -18 5 -21 10 -3 5 -12 10 -20 11 -8 2 -20 6
-26 10 -7 5 -13 6 -13 2 0 -3 -9 -1 -21 5 -11 7 -33 14 -47 16 -15 3 -33 10
-41 17 -7 6 -19 12 -25 12 -29 1 -76 18 -76 26 0 6 -4 7 -10 4 -5 -3 -16 -3
-22 2 -7 4 -21 8 -31 8 -10 0 -21 5 -25 10 -4 6 -14 11 -22 11 -35 4 -74 14
-79 21 -7 9 -23 13 -63 16 -15 1 -28 5 -28 9 0 6 -19 12 -79 23 -14 2 -27 8
-30 12 -6 9 -16 11 -59 17 -15 2 -35 7 -44 10 -9 4 -25 9 -35 11 -10 2 -19 4
-20 5 -2 2 -6 3 -10 4 -5 2 -28 8 -53 16 -25 7 -54 13 -64 12 -10 -1 -28 5
-38 12 -11 8 -28 12 -39 9 -11 -3 -19 0 -19 7 0 7 -7 10 -15 6 -8 -3 -28 0
-43 6 -30 13 -54 18 -92 20 -14 1 -27 5 -30 9 -3 4 -17 9 -30 11 -14 2 -29 6
-35 9 -5 4 -19 5 -29 3 -11 -1 -29 2 -40 8 -12 7 -32 13 -46 15 -14 2 -38 5
-55 7 -16 3 -45 9 -62 15 -18 5 -33 7 -33 4 0 -3 -6 -1 -12 4 -7 5 -26 8 -43
8 -16 -1 -36 2 -42 8 -7 5 -25 11 -40 13 -16 1 -50 5 -76 8 -27 3 -54 9 -60
13 -6 3 -24 8 -41 10 -137 16 -137 16 -67 -76 32 -42 66 -82 75 -90 9 -7 16
-19 16 -25 0 -6 9 -17 21 -24 12 -7 19 -16 16 -18 -3 -3 10 -21 29 -39 19 -19
34 -37 34 -40 0 -3 12 -18 26 -33 14 -15 33 -39 42 -54 9 -16 20 -28 25 -28 4
0 5 -4 2 -10 -3 -5 1 -10 9 -10 9 0 16 -4 16 -8 0 -5 9 -20 21 -33 11 -13 33
-39 47 -58 81 -102 124 -154 137 -168 8 -8 15 -18 15 -22 0 -4 9 -17 20 -28
11 -12 41 -48 67 -80 25 -32 51 -61 57 -65 6 -4 8 -8 3 -8 -4 0 1 -8 10 -19
10 -10 32 -35 48 -56 17 -20 37 -45 45 -55 33 -40 47 -57 94 -117 27 -35 52
-63 57 -63 4 0 10 -8 14 -19 3 -10 17 -31 31 -47 14 -16 55 -67 92 -114 36
-47 79 -98 94 -115 15 -16 28 -36 28 -43 0 -7 4 -10 10 -7 5 3 10 -1 10 -9 0
-9 9 -21 20 -28 11 -7 20 -18 20 -25 0 -6 4 -13 8 -15 4 -1 35 -37 67 -78 33
-41 68 -84 79 -95 10 -11 25 -31 35 -45 16 -25 48 -63 89 -107 12 -13 22 -27
22 -31 0 -4 15 -24 33 -44 17 -20 50 -60 72 -89 22 -29 47 -59 55 -68 8 -9 28
-35 45 -56 16 -22 34 -45 40 -51 5 -6 24 -28 40 -49 17 -21 37 -46 45 -54 8
-9 26 -32 40 -51 14 -19 37 -47 52 -62 15 -14 25 -28 23 -30 -2 -2 12 -22 33
-45 20 -23 46 -53 56 -68 11 -14 30 -38 44 -53 13 -15 35 -44 49 -64 14 -21
30 -38 35 -38 5 0 6 -4 3 -10 -3 -5 -2 -10 3 -10 5 0 29 -25 52 -56 24 -31 50
-64 59 -74 9 -9 27 -32 41 -50 14 -18 32 -40 40 -49 8 -9 37 -45 65 -81 27
-36 55 -69 62 -73 7 -4 13 -12 13 -17 0 -4 13 -23 30 -42 16 -18 29 -36 30
-40 0 -5 14 -21 30 -37 17 -15 30 -33 30 -40 0 -6 4 -11 8 -11 5 0 20 -15 33
-33 13 -19 38 -51 56 -73 18 -21 64 -79 103 -127 89 -111 88 -109 149 -183 28
-34 51 -67 51 -72 0 -6 4 -12 9 -14 10 -4 111 -123 111 -132 0 -3 8 -14 18
-24 22 -23 34 -39 162 -197 57 -71 109 -135 115 -142 5 -7 15 -18 20 -25 35
-45 93 -117 112 -137 12 -14 20 -28 17 -33 -3 -4 -1 -8 4 -8 5 0 38 -37 74
-82 36 -46 74 -93 84 -104 11 -12 30 -36 44 -54 31 -41 111 -141 125 -156 6
-6 21 -25 35 -43 14 -18 50 -63 80 -101 30 -37 75 -94 100 -125 25 -31 57 -71
72 -88 14 -17 24 -36 21 -41 -3 -5 -1 -6 5 -2 7 4 12 3 12 -1 0 -5 10 -19 23
-33 12 -14 36 -43 52 -65 49 -64 59 -77 83 -98 12 -11 22 -25 22 -30 0 -5 14
-22 30 -39 17 -16 30 -33 30 -37 0 -3 12 -20 28 -38 58 -65 80 -93 74 -93 -3
0 1 -6 10 -13 8 -6 33 -35 54 -62 22 -28 45 -57 51 -65 7 -8 29 -35 48 -60 20
-25 46 -58 60 -75 31 -37 58 -71 129 -160 31 -38 62 -77 71 -86 8 -9 15 -21
15 -28 0 -7 4 -9 10 -6 5 3 10 1 10 -5 0 -10 59 -86 128 -165 42 -49 92 -114
92 -120 0 -3 10 -16 23 -28 12 -12 47 -53 77 -92 30 -38 65 -81 77 -95 13 -14
23 -28 23 -32 0 -4 10 -18 23 -31 33 -35 66 -76 122 -149 52 -69 88 -90 109
-64 29 37 103 121 119 135 9 8 17 21 17 27 0 7 4 14 9 16 10 3 101 114 101
122 0 3 8 14 18 25 27 30 52 64 52 73 0 5 11 21 25 36 14 15 25 30 25 34 0 4
22 42 50 85 27 43 50 84 50 91 0 6 3 12 8 12 4 0 18 25 32 55 14 30 28 55 33
55 4 0 7 6 7 13 0 7 13 39 29 70 16 31 26 59 23 62 -3 3 1 5 8 5 7 0 10 3 7 6
-4 4 0 19 8 33 31 54 148 397 144 417 -1 5 0 16 4 24 14 38 26 87 25 110 -1
14 1 32 4 40 13 34 29 129 33 195 2 39 5 70 5 70 15 0 21 581 7 690 -4 33 -9
74 -12 90 -2 17 -7 55 -10 85 -5 48 -14 7970 -9 7970 10 0 111 -56 116 -64 4
-6 8 -7 8 -3 0 5 12 -1 26 -12 15 -11 30 -18 35 -15 5 3 9 1 9 -4 0 -5 27 -22
60 -38 33 -16 60 -33 60 -37 0 -5 4 -5 10 -2 5 3 10 1 10 -5 0 -7 7 -10 15 -6
8 3 15 1 15 -4 0 -5 27 -22 60 -38 33 -15 57 -31 54 -35 -4 -4 5 -7 19 -7 15
0 27 -4 27 -8 0 -10 77 -52 96 -52 8 0 14 -4 14 -8 0 -5 19 -18 42 -28 23 -10
57 -29 75 -41 18 -12 33 -20 33 -18 0 3 18 -6 40 -20 22 -14 44 -25 50 -25 5
0 10 -4 10 -10 0 -5 7 -7 15 -4 8 4 15 2 15 -4 0 -6 26 -23 58 -39 31 -15 59
-31 60 -35 2 -5 12 -8 23 -8 10 0 19 -4 19 -9 0 -5 10 -13 23 -17 12 -4 33
-15 46 -25 13 -10 27 -17 31 -14 4 3 13 -2 20 -10 7 -8 18 -15 25 -15 7 0 18
-7 25 -15 7 -8 16 -12 21 -9 5 3 9 0 9 -7 0 -7 3 -9 6 -6 4 3 18 -2 32 -13 13
-11 28 -17 33 -14 5 3 9 0 9 -6 0 -6 12 -15 27 -21 15 -6 44 -20 63 -32 19
-12 40 -22 47 -23 7 -1 20 -9 29 -18 14 -15 28 -20 47 -17 4 0 7 -3 7 -7 0 -5
21 -19 48 -32 26 -13 64 -34 85 -47 20 -13 37 -21 37 -17 0 3 7 -2 16 -10 8
-9 22 -16 30 -16 8 0 14 -4 14 -10 0 -5 9 -10 20 -10 11 0 20 -4 20 -8 0 -4
20 -16 45 -26 25 -11 45 -24 45 -29 0 -6 3 -7 6 -4 4 3 18 -2 32 -13 13 -11
28 -17 33 -14 5 3 9 2 9 -3 0 -4 43 -30 95 -57 52 -27 95 -52 95 -56 0 -4 6
-7 13 -7 6 0 36 -14 65 -32 29 -17 55 -31 58 -31 3 0 19 -9 35 -21 16 -11 29
-17 29 -14 0 3 14 -3 30 -15 17 -12 30 -18 30 -13 0 4 4 3 8 -3 4 -6 27 -21
52 -34 25 -12 53 -29 62 -38 10 -8 18 -12 18 -8 0 3 18 -5 40 -19 22 -14 40
-23 40 -20 0 3 9 -3 21 -14 12 -11 27 -17 35 -14 9 3 14 -1 14 -12 0 -11 5
-15 15 -11 8 3 15 1 15 -5 0 -6 4 -8 9 -4 6 3 14 -3 20 -12 6 -10 11 -15 11
-11 0 4 28 -9 62 -29 34 -20 68 -36 75 -36 7 0 13 -4 13 -7 0 -4 14 -13 30
-20 17 -7 30 -17 30 -22 0 -5 4 -7 9 -3 5 3 12 1 16 -5 4 -6 10 -8 15 -5 4 3
10 -2 14 -10 3 -8 15 -15 26 -15 11 0 20 -4 20 -10 0 -5 6 -10 13 -10 6 0 23
-9 37 -20 14 -11 32 -20 41 -20 9 0 20 -7 23 -16 4 -9 9 -14 13 -11 3 4 18 -2
33 -13 15 -11 30 -17 34 -13 3 3 6 1 6 -6 0 -7 4 -10 9 -6 5 3 12 1 16 -4 3
-5 18 -16 33 -24 46 -23 146 -79 158 -88 6 -5 14 -6 17 -2 4 3 7 2 7 -4 0 -9
24 -21 40 -19 3 0 15 -9 28 -19 12 -11 26 -19 30 -19 4 1 19 -7 34 -17 14 -10
31 -19 36 -19 6 0 12 -3 14 -7 2 -5 37 -25 78 -47 41 -21 81 -43 89 -49 7 -6
20 -12 29 -14 9 -1 18 -7 20 -13 2 -5 8 -8 13 -4 5 3 9 0 9 -7 0 -7 3 -9 6 -6
4 3 18 -3 32 -13 13 -11 31 -20 38 -20 8 0 14 -5 14 -11 0 -5 5 -7 10 -4 6 3
10 1 10 -5 0 -6 4 -9 8 -6 5 3 19 -4 31 -15 12 -11 25 -18 29 -15 5 3 16 -4
25 -15 10 -11 21 -17 26 -15 5 3 14 -1 21 -9 7 -8 21 -15 31 -15 11 0 19 -4
19 -10 0 -8 73 -46 94 -47 5 -1 13 -8 18 -17 5 -9 13 -14 19 -11 5 4 9 1 9 -6
0 -7 3 -10 6 -6 4 3 13 -1 21 -9 8 -8 19 -12 24 -9 5 4 9 1 9 -4 0 -6 6 -11
14 -11 8 0 16 -5 18 -11 2 -5 10 -11 19 -12 9 -2 28 -11 42 -20 15 -10 27 -15
27 -12 0 2 8 -2 18 -10 9 -8 21 -15 26 -14 5 0 12 -3 15 -8 6 -8 66 -41 191
-105 36 -18 66 -36 68 -40 2 -5 8 -8 12 -8 5 0 32 -13 60 -30 27 -16 50 -27
50 -24 0 3 7 -2 16 -10 8 -9 21 -16 28 -16 8 0 19 -7 26 -15 7 -8 19 -15 28
-15 8 0 21 -8 29 -17 10 -12 12 -13 8 -3 -6 13 -5 13 7 0 14 -17 68 -45 81
-42 4 1 7 -2 7 -8 0 -5 7 -10 15 -10 8 0 15 -5 15 -12 0 -6 3 -8 6 -5 4 4 19
-2 34 -13 15 -11 30 -17 34 -13 3 3 6 1 6 -5 0 -5 20 -18 45 -28 25 -9 45 -20
45 -23 0 -3 14 -12 31 -20 18 -8 61 -31 97 -52 36 -21 68 -36 70 -34 3 3 10
-2 16 -11 6 -8 20 -16 30 -18 9 -1 21 -8 25 -15 5 -7 11 -12 15 -12 9 1 40
-12 46 -19 6 -8 72 -39 83 -39 5 0 14 -7 21 -16 6 -9 18 -17 26 -18 9 -2 33
-14 55 -27 22 -14 43 -24 48 -22 4 1 7 -3 7 -9 0 -5 4 -8 9 -5 5 3 14 -1 21
-9 7 -8 16 -12 21 -9 5 3 9 1 9 -4 0 -10 110 -68 123 -64 4 1 7 -2 7 -8 0 -8
89 -53 99 -50 2 1 7 -3 10 -8 7 -10 94 -56 100 -53 2 2 7 -3 12 -10 4 -7 15
-14 24 -15 9 -1 25 -10 34 -18 10 -9 20 -16 24 -16 3 0 28 -13 56 -29 27 -16
52 -27 55 -24 3 4 6 1 6 -6 0 -7 4 -10 9 -7 5 3 11 -1 15 -9 3 -8 14 -15 24
-15 11 0 25 -7 32 -15 7 -8 16 -12 21 -9 5 3 9 0 9 -5 0 -6 4 -11 10 -11 5 0
44 -20 86 -45 42 -25 79 -44 81 -41 3 2 12 -2 21 -10 10 -8 22 -14 27 -15 6 0
17 -6 25 -13 8 -7 35 -24 60 -37 25 -13 48 -28 51 -32 3 -4 16 -9 27 -10 29
-2 28 -20 -3 -53 -14 -15 -25 -24 -25 -21 0 3 -13 -7 -28 -21 -77 -74 -138
-127 -145 -127 -5 0 -14 -10 -20 -22 -7 -12 -15 -22 -19 -22 -9 -1 -43 -30
-105 -88 -24 -24 -47 -43 -51 -43 -4 0 -24 -18 -45 -40 -20 -22 -40 -40 -43
-40 -3 0 -18 -12 -34 -27 -16 -16 -47 -44 -70 -63 -23 -19 -54 -46 -68 -60
-14 -14 -30 -24 -34 -23 -4 2 -9 -5 -12 -15 -3 -10 -19 -26 -36 -35 -16 -10
-30 -22 -30 -28 0 -5 -7 -9 -15 -9 -8 0 -15 -7 -15 -15 0 -8 -6 -15 -13 -15
-7 0 -19 -9 -27 -20 -8 -11 -21 -20 -29 -20 -8 0 -12 -3 -8 -6 3 -3 -22 -29
-56 -57 -69 -58 -100 -85 -157 -139 -22 -21 -40 -36 -40 -34 0 3 -36 -29 -137
-121 -20 -18 -40 -33 -44 -33 -5 0 -9 -7 -9 -15 0 -8 -3 -14 -7 -13 -9 3 -47
-28 -105 -84 -21 -21 -40 -38 -43 -38 -3 0 -19 -14 -35 -30 -17 -17 -30 -29
-30 -27 0 3 -23 -17 -50 -44 -28 -27 -53 -49 -56 -49 -3 0 -22 -16 -42 -35
-20 -19 -56 -52 -79 -74 -23 -22 -44 -37 -48 -33 -3 3 -8 -4 -12 -16 -3 -12
-12 -22 -19 -22 -8 0 -17 -7 -20 -15 -4 -8 -10 -15 -15 -15 -4 0 -21 -12 -37
-28 -16 -15 -58 -52 -92 -82 -34 -30 -79 -71 -99 -90 -20 -19 -41 -37 -46 -40
-11 -6 -53 -43 -125 -112 -28 -26 -50 -44 -50 -40 0 3 -13 -8 -29 -26 -17 -17
-35 -32 -40 -32 -6 0 -11 -7 -11 -15 0 -8 -5 -15 -11 -15 -6 0 -16 -6 -23 -12
-8 -7 -40 -35 -71 -63 -32 -27 -73 -63 -91 -80 -17 -16 -54 -49 -80 -72 -27
-23 -66 -56 -86 -75 -20 -18 -63 -55 -95 -83 -32 -27 -70 -62 -85 -77 -16 -14
-28 -24 -28 -21 0 3 -15 -11 -33 -31 -18 -20 -37 -36 -40 -36 -4 0 -28 -20
-52 -45 -25 -24 -45 -42 -45 -40 0 3 -15 -10 -34 -28 -19 -17 -58 -52 -87 -77
-29 -25 -67 -60 -86 -78 -18 -19 -33 -31 -33 -29 0 3 -18 -12 -40 -34 -21 -21
-42 -39 -45 -39 -3 0 -26 -20 -50 -45 -25 -24 -45 -42 -45 -39 0 2 -20 -15
-44 -40 -25 -24 -47 -41 -51 -38 -3 3 -8 -4 -12 -16 -3 -12 -9 -19 -14 -16 -5
3 -9 0 -9 -7 0 -7 -2 -10 -5 -7 -3 3 -27 -16 -54 -41 -27 -25 -73 -66 -101
-91 -29 -25 -65 -57 -80 -72 -15 -15 -31 -24 -34 -20 -4 3 -9 -4 -13 -16 -3
-12 -9 -22 -14 -22 -8 0 -47 -33 -111 -93 -16 -15 -52 -45 -79 -67 -28 -22
-47 -40 -43 -40 4 0 -7 -11 -25 -24 -18 -13 -39 -33 -46 -43 -8 -10 -15 -15
-15 -11 0 4 -24 -15 -52 -41 -29 -27 -70 -64 -92 -83 l-38 -34 0 -3058 0
-3057 82 -97 c44 -53 93 -111 108 -127 15 -17 47 -55 72 -84 25 -30 50 -59 55
-65 6 -6 35 -41 65 -76 30 -36 57 -67 60 -70 3 -3 39 -45 80 -95 41 -49 77
-92 80 -95 3 -3 30 -34 60 -70 30 -36 60 -70 65 -76 6 -6 30 -35 55 -64 106
-126 173 -204 183 -215 22 -23 102 -118 117 -139 8 -12 26 -32 40 -46 14 -14
43 -48 65 -75 22 -28 44 -55 50 -61 5 -6 28 -33 50 -59 22 -27 58 -68 80 -93
22 -25 46 -54 54 -66 8 -12 18 -23 21 -26 6 -4 101 -115 169 -195 9 -11 41
-49 72 -85 30 -36 66 -78 79 -94 14 -16 32 -37 40 -46 8 -9 37 -43 65 -75 48
-58 67 -80 117 -136 12 -15 37 -44 53 -65 17 -21 35 -42 40 -48 6 -6 35 -40
65 -76 30 -35 60 -70 65 -76 6 -6 28 -32 50 -59 22 -26 47 -55 55 -64 8 -9 53
-61 100 -116 46 -55 93 -109 103 -120 10 -11 33 -39 50 -62 18 -23 38 -43 45
-43 9 0 12 541 12 2670 0 2129 3 2670 13 2671 6 0 1899 1 4204 2 2788 1 4194
-1 4196 -8 2 -5 3 -1219 3 -2697 l-1 -2688 51 0 c58 0 51 -7 254 235 23 28 52
61 64 75 11 14 46 54 76 89 30 36 62 72 70 81 8 9 33 38 55 65 60 74 167 199
174 205 3 3 24 27 46 55 22 27 47 57 55 66 8 8 26 29 39 45 36 43 125 147 136
159 6 7 28 33 50 59 22 27 48 58 58 70 46 52 170 198 287 336 25 29 50 58 55
64 6 6 46 54 90 106 44 52 124 147 178 210 143 167 148 173 189 221 61 74 76
92 117 139 22 25 83 97 137 160 53 63 105 124 115 135 10 11 37 43 59 70 23
28 54 64 69 80 14 17 49 57 76 90 28 33 52 62 55 65 3 3 22 25 43 49 l37 45 0
3018 0 3018 -54 55 c-30 30 -57 55 -60 55 -2 0 -74 69 -158 153 -85 83 -174
170 -199 192 -24 22 -44 42 -43 45 1 3 -12 15 -28 26 -16 12 -37 31 -47 43
-10 11 -24 21 -31 21 -7 0 -11 3 -8 6 7 6 -39 54 -52 54 -6 0 -10 4 -10 8 0
13 -36 52 -48 52 -6 0 -14 9 -17 20 -4 11 -10 18 -15 15 -4 -3 -10 5 -13 17
-4 12 -9 20 -12 17 -3 -3 -59 47 -125 113 -66 65 -124 118 -130 118 -5 0 -10
5 -10 10 0 6 -21 31 -48 55 -26 24 -118 113 -205 197 -86 85 -157 153 -157
152 0 -1 -61 58 -135 131 -74 74 -135 131 -135 128 0 -3 -13 10 -29 30 -15 20
-31 34 -35 30 -3 -3 -6 1 -6 10 0 9 -4 17 -9 17 -5 0 -63 53 -130 119 -67 65
-121 117 -121 117 0 -1 -78 75 -174 168 -96 94 -250 244 -343 334 -92 89 -246
238 -340 331 -95 92 -173 167 -173 166 0 -1 -54 52 -120 117 -65 65 -124 118
-130 118 -5 0 -10 6 -10 14 0 8 -4 16 -10 18 -9 3 -283 267 -561 541 -72 70
-134 127 -139 127 -5 0 -12 9 -15 21 -4 11 -9 19 -11 16 -2 -2 -58 49 -124
115 -66 65 -125 118 -130 118 -6 0 -10 5 -10 10 0 6 -12 21 -26 34 l-27 23 34
20 c19 11 49 26 67 34 17 8 32 18 32 22 0 5 4 6 9 2 6 -3 14 3 20 12 6 10 11
14 11 10 0 -5 12 0 28 11 15 11 32 20 37 21 6 0 18 8 28 16 9 8 17 12 17 9 0
-7 63 28 72 41 4 6 8 6 8 2 0 -5 13 1 29 12 16 12 34 21 40 21 6 0 11 4 11 9
0 5 10 11 23 15 13 3 40 16 59 30 20 13 39 22 42 18 3 -3 6 0 6 7 0 7 5 9 10
6 6 -3 13 1 16 9 3 9 10 14 14 11 5 -3 11 -1 15 5 4 6 11 8 16 5 5 -4 9 -2 9
3 0 5 13 15 30 22 17 7 30 16 30 20 0 3 6 7 13 7 7 0 40 16 74 36 34 19 64 33
67 30 3 -4 6 -2 6 4 0 6 13 16 30 23 17 7 30 16 30 20 0 3 6 7 13 7 7 0 41 16
75 36 34 20 62 33 62 30 0 -4 7 2 15 13 8 10 15 15 15 11 0 -5 12 0 28 11 15
10 42 24 60 31 17 8 32 18 32 23 0 5 5 6 10 3 6 -3 13 0 16 9 3 8 12 12 20 9
8 -3 14 0 14 7 0 6 5 8 10 5 6 -3 10 -1 10 4 0 6 7 11 15 11 8 0 15 4 15 10 0
5 3 9 8 8 10 -3 75 32 84 46 4 6 8 8 8 3 0 -4 18 4 39 17 21 14 41 22 45 19 3
-3 8 2 12 11 3 9 10 13 15 10 5 -3 9 -1 9 4 0 5 6 9 13 9 6 0 31 12 54 26 24
15 47 27 53 27 5 0 10 5 10 11 0 5 5 7 10 4 6 -3 10 -2 10 2 0 5 16 15 35 22
19 7 35 17 35 23 0 6 3 9 6 5 3 -3 28 8 55 24 28 16 51 29 53 29 2 0 50 26
107 58 57 32 124 68 149 81 82 43 110 58 125 71 8 7 15 9 15 6 0 -4 12 1 28
12 15 10 48 29 75 41 26 13 47 27 47 32 0 5 3 8 8 8 14 -3 72 23 72 33 0 5 4
7 9 4 5 -3 14 1 21 9 7 8 18 15 25 15 7 0 18 7 25 15 7 9 15 13 18 11 2 -3 20
6 40 19 19 13 39 22 43 20 4 -3 10 2 13 11 3 8 10 12 16 9 5 -3 10 -1 10 5 0
6 4 9 9 6 5 -3 14 0 19 7 6 7 27 19 47 27 19 7 35 18 35 22 0 5 4 7 9 3 6 -3
14 3 20 12 6 10 11 15 11 11 0 -4 28 9 62 28 35 19 75 40 91 45 15 6 27 15 27
21 0 5 4 7 9 4 5 -3 14 1 21 9 7 8 17 15 23 15 5 0 32 13 58 30 27 16 49 27
49 24 0 -3 12 4 26 15 15 12 31 21 36 21 6 0 21 9 35 20 14 11 29 18 33 15 4
-3 13 2 20 10 7 8 19 15 26 15 8 0 14 4 14 9 0 5 13 12 29 16 16 3 32 13 35
22 4 9 9 13 13 10 3 -4 19 3 34 14 16 11 29 18 29 15 0 -3 25 10 55 29 30 20
55 33 55 30 0 -3 17 6 37 20 21 14 43 25 50 25 7 0 13 5 13 10 0 6 9 10 19 10
10 0 22 7 25 16 3 8 10 12 16 9 5 -3 10 -1 10 5 0 6 4 9 9 5 6 -3 14 3 20 12
6 10 11 14 11 10 0 -4 30 9 68 29 37 20 87 48 111 61 24 12 50 28 57 34 8 6
14 8 14 4 0 -5 8 -1 18 8 9 8 24 17 32 19 8 2 17 6 20 9 4 5 81 48 185 103 11
6 27 15 35 21 8 5 22 10 30 12 8 1 20 10 27 19 7 10 13 14 13 10 0 -5 7 -3 15
4 8 7 15 9 15 4 0 -4 7 1 15 12 8 10 15 15 15 11 0 -5 13 1 29 12 16 12 31 21
34 21 3 0 33 16 66 34 34 19 61 33 61 31 0 -3 9 3 20 13 12 9 24 17 28 17 4 1
18 7 32 15 14 8 29 14 33 15 4 0 12 7 17 15 5 8 10 11 10 5 0 -6 3 -6 8 0 7
11 60 38 75 39 5 1 15 9 22 20 8 10 18 15 23 12 5 -3 19 4 31 15 12 11 25 17
30 14 5 -3 12 -1 16 5 7 11 84 54 98 55 4 0 11 6 16 13 5 8 10 13 12 13 14 -2
49 13 49 21 0 5 4 6 10 3 5 -3 10 -1 10 4 0 6 4 11 10 11 5 0 31 13 59 29 27
16 51 27 54 25 2 -2 10 2 17 11 7 8 18 15 25 15 7 0 18 7 25 15 7 8 16 12 21
9 5 -3 9 0 9 6 0 6 4 9 9 6 5 -4 11 -3 13 1 1 5 28 21 58 37 30 16 61 34 69
40 7 5 20 11 28 12 8 2 22 9 31 18 10 8 19 14 22 13 3 0 16 6 30 15 14 8 40
22 58 29 17 8 32 17 32 21 0 5 5 8 10 8 6 0 28 11 50 25 22 14 40 23 40 19 0
-3 12 3 28 14 15 10 35 22 45 25 9 4 17 10 17 15 0 4 10 8 22 9 11 1 24 6 27
11 3 4 40 25 81 46 41 22 78 43 81 48 3 5 13 10 21 12 8 1 27 9 41 19 15 9 30
17 35 17 5 0 21 9 34 20 14 10 28 16 32 13 3 -3 6 -1 6 5 0 7 7 12 15 12 8 0
15 5 15 12 0 6 3 8 7 5 3 -4 15 0 25 10 10 9 18 13 18 8 0 -4 6 -3 13 3 18 15
158 92 180 99 9 3 17 10 17 15 0 5 4 7 8 4 5 -3 18 2 28 12 11 9 26 18 34 20
8 2 22 10 30 17 8 7 18 13 22 12 4 -1 16 6 28 15 11 10 20 15 20 12 0 -4 7 -1
15 6 8 7 15 9 15 4 0 -5 4 -4 8 2 4 6 32 24 62 40 30 16 58 33 61 37 4 5 10 4
14 -3 13 -21 10 -7301 -3 -7341 -7 -19 -14 -52 -18 -74 -3 -22 -9 -44 -12 -50
-8 -12 -10 -24 -16 -85 -2 -25 -9 -64 -15 -85 -6 -22 -11 -49 -11 -60 -5 -135
-11 -190 -21 -195 -8 -6 -8 -9 0 -14 7 -5 8 -13 1 -25 -12 -23 -10 -424 2
-469 8 -30 18 -147 18 -226 1 -16 5 -36 10 -46 5 -10 12 -44 15 -76 7 -75 9
-86 19 -103 5 -8 9 -27 8 -42 0 -16 3 -31 8 -34 5 -3 7 -12 3 -20 -3 -9 0 -22
7 -30 7 -9 14 -32 16 -52 2 -20 7 -39 12 -42 5 -3 12 -24 16 -46 4 -22 13 -46
19 -53 6 -7 12 -27 14 -45 2 -17 7 -33 12 -36 4 -4 11 -18 15 -34 6 -27 28
-78 92 -213 19 -38 34 -76 34 -82 0 -7 4 -12 9 -12 5 0 14 -12 20 -27 13 -37
63 -124 79 -141 6 -7 12 -20 12 -28 0 -8 5 -14 10 -14 6 0 10 -4 10 -10 0 -9
37 -68 66 -105 8 -11 23 -32 32 -47 9 -16 20 -28 24 -28 4 0 8 -5 8 -10 0 -11
10 -24 43 -61 9 -10 17 -21 17 -24 0 -3 8 -13 18 -24 9 -10 28 -33 42 -52 62
-82 156 -179 173 -179 11 0 47 41 132 148 5 7 17 21 25 31 8 9 31 37 50 62 19
24 38 49 42 54 25 31 122 153 136 170 10 11 42 52 72 90 30 39 57 72 60 75 3
3 24 27 45 55 22 27 45 55 50 62 13 16 20 24 90 113 33 41 62 77 65 80 3 3 28
34 55 70 28 36 53 67 56 70 3 3 53 64 110 135 56 72 105 132 108 135 4 3 33
39 66 80 32 41 63 77 67 78 4 2 8 8 8 13 0 6 12 22 26 37 14 15 37 44 51 65
14 20 30 37 34 37 5 0 9 6 9 14 0 8 3 16 8 18 4 2 25 26 47 53 22 28 46 54 53
58 6 4 12 15 12 22 0 8 4 15 8 15 4 0 25 24 47 53 21 28 44 57 49 62 6 6 38
44 71 85 33 41 65 82 72 90 6 8 29 38 51 65 114 145 266 330 274 333 4 2 8 10
8 17 0 7 3 15 8 17 4 2 27 28 52 58 24 30 48 57 52 58 5 2 8 7 8 12 0 5 9 19
20 32 10 12 37 46 60 73 22 28 46 57 53 65 43 50 107 138 107 148 0 7 4 11 9
10 4 -2 28 22 52 52 23 30 48 60 54 67 5 7 15 18 20 25 6 7 32 39 58 71 26 33
47 63 47 68 0 5 7 9 15 9 8 0 15 7 15 15 0 9 7 18 15 21 8 4 15 10 15 16 0 5
6 15 13 22 6 7 26 31 42 52 17 21 38 46 48 56 9 10 17 21 17 25 0 4 9 16 20
28 11 11 34 38 51 60 50 65 92 117 128 157 18 21 31 38 28 38 -3 0 9 15 25 33
17 17 48 55 68 82 21 28 47 61 59 75 51 58 61 70 61 75 0 3 9 16 20 28 60 66
90 103 90 109 0 4 12 20 28 36 15 16 34 39 42 52 8 12 20 28 25 34 6 6 29 34
52 63 22 29 43 49 47 46 3 -4 6 -1 6 6 0 10 176 239 200 261 3 3 28 33 54 68
27 34 53 62 58 62 5 0 7 4 3 9 -3 5 5 17 17 25 12 9 19 16 15 16 -4 0 2 10 14
23 11 12 33 38 48 57 14 19 32 41 39 48 7 8 25 30 40 50 15 21 30 39 33 42 3
3 43 52 89 110 45 58 86 107 89 110 3 3 18 21 32 40 15 19 35 45 45 58 11 12
30 36 44 54 14 17 35 42 47 55 13 13 22 26 22 29 -1 3 12 20 28 37 15 18 27
35 25 40 -1 4 2 7 7 7 5 0 27 24 49 53 22 30 46 60 54 68 7 8 36 43 62 79 27
36 60 75 73 86 12 12 23 25 23 30 0 5 16 26 35 46 19 20 35 39 35 42 0 3 8 14
18 25 9 10 26 30 37 45 11 14 29 37 40 50 11 13 28 35 39 50 10 14 30 38 45
54 14 15 35 40 46 56 11 15 37 46 57 69 20 23 35 44 32 48 -2 4 0 9 5 11 12 4
172 198 164 198 -4 0 0 6 8 13 9 6 33 35 54 62 22 28 51 62 66 76 16 15 26 29
23 32 -3 3 11 21 31 41 19 20 33 36 29 36 -4 0 2 8 12 18 11 9 31 33 45 52 15
19 35 45 45 57 48 55 76 92 75 97 0 3 11 17 25 31 38 38 19 66 -28 43 -10 -5
-35 -11 -55 -13 -89 -10 -116 -15 -136 -22 -12 -4 -33 -8 -47 -9 -40 -4 -73
-10 -100 -19 -14 -5 -38 -9 -55 -11 -16 -1 -30 -3 -30 -4 0 -2 -10 -4 -22 -5
-12 -1 -30 -6 -40 -10 -10 -4 -31 -9 -48 -10 -16 -2 -32 -4 -35 -5 -3 -1 -9
-3 -15 -5 -5 -1 -12 -3 -15 -4 -10 -5 -46 -13 -70 -16 -14 -1 -25 -3 -25 -4 0
-2 -11 -4 -25 -7 -14 -2 -32 -7 -40 -11 -14 -6 -36 -10 -86 -17 -11 -1 -27 -6
-35 -11 -7 -5 -23 -11 -34 -12 -56 -7 -77 -12 -90 -23 -8 -6 -18 -9 -24 -6 -5
4 -20 2 -33 -3 -49 -20 -63 -24 -72 -22 -5 1 -16 -1 -25 -5 -9 -4 -25 -9 -36
-11 -10 -2 -22 -7 -25 -11 -3 -4 -12 -8 -20 -8 -31 -3 -69 -13 -87 -22 -10 -5
-24 -7 -31 -5 -6 3 -12 0 -12 -5 0 -5 -10 -9 -22 -8 -13 1 -26 -3 -30 -8 -3
-5 -12 -11 -20 -12 -47 -8 -69 -14 -80 -21 -14 -8 -15 -8 -63 -18 -16 -3 -35
-11 -42 -16 -7 -6 -17 -8 -23 -4 -5 3 -10 2 -10 -4 0 -6 -7 -8 -15 -5 -8 4
-17 -1 -21 -9 -3 -8 -13 -14 -22 -12 -9 1 -21 0 -27 -4 -5 -3 -19 -7 -29 -8
-11 -2 -25 -8 -33 -14 -7 -6 -13 -8 -13 -4 0 4 -7 2 -15 -5 -8 -7 -15 -9 -15
-6 0 4 -10 1 -22 -6 -22 -11 -30 -14 -62 -21 -8 -2 -21 -9 -30 -16 -8 -7 -20
-10 -25 -7 -5 4 -13 1 -16 -5 -4 -5 -13 -8 -20 -5 -8 3 -15 0 -17 -5 -2 -6
-10 -11 -18 -12 -8 -2 -21 -6 -27 -10 -7 -5 -17 -6 -22 -3 -5 3 -12 -1 -15
-10 -4 -9 -9 -14 -12 -11 -6 6 -132 -39 -150 -54 -6 -5 -14 -6 -17 -2 -4 3 -7
0 -7 -7 0 -7 -3 -11 -6 -8 -3 4 -24 -2 -47 -12 -23 -10 -44 -17 -48 -14 -4 2
-10 -3 -13 -12 -4 -9 -13 -14 -21 -10 -8 3 -15 0 -15 -6 0 -6 -3 -8 -7 -5 -3
4 -16 1 -28 -7 -12 -8 -30 -16 -41 -18 -10 -2 -22 -7 -25 -11 -3 -5 -12 -9
-20 -10 -8 -2 -20 -6 -26 -10 -7 -5 -13 -5 -13 0 0 4 -4 2 -9 -6 -9 -13 -27
-20 -58 -23 -7 -1 -13 -4 -13 -8 0 -7 -105 -53 -116 -50 -4 1 -10 -4 -15 -12
-5 -7 -12 -13 -16 -13 -18 -2 -58 -18 -64 -27 -3 -4 -16 -11 -29 -13 -13 -2
-27 -9 -30 -15 -4 -6 -17 -12 -28 -13 -12 -1 -22 -4 -22 -8 0 -4 -13 -11 -28
-17 l-28 -10 0 4959 c0 2727 -3 4961 -7 4965 -3 3 -13 -1 -22 -9 -8 -9 -24
-19 -35 -22 -11 -3 -20 -10 -20 -14 0 -4 -10 -8 -22 -8 -13 -1 -27 -8 -33 -15
-5 -7 -17 -14 -25 -16 -8 -2 -23 -11 -34 -20 -10 -9 -21 -16 -25 -14 -3 1 -15
-6 -26 -15 -11 -9 -20 -16 -20 -14 0 4 -39 -12 -45 -18 -3 -3 -26 -16 -52 -29
-27 -13 -48 -27 -48 -32 0 -5 -7 -7 -15 -4 -8 4 -15 1 -15 -7 0 -7 -3 -9 -6
-6 -4 4 -19 -2 -34 -13 -16 -11 -33 -20 -39 -20 -6 0 -11 -5 -11 -11 0 -5 -4
-8 -9 -4 -5 3 -15 0 -23 -7 -7 -7 -36 -24 -63 -38 -28 -14 -52 -28 -55 -32 -3
-3 -18 -10 -33 -13 -15 -4 -27 -12 -27 -19 0 -6 -10 -12 -21 -13 -12 -1 -29
-8 -38 -16 -9 -8 -31 -20 -48 -28 -18 -8 -33 -18 -33 -22 0 -5 -4 -6 -9 -2 -5
3 -12 1 -15 -4 -4 -5 -27 -20 -54 -33 -93 -47 -207 -111 -213 -120 -3 -6 -10
-10 -15 -10 -24 -2 -44 -11 -44 -20 0 -5 -4 -7 -9 -3 -6 3 -14 -3 -20 -12 -5
-10 -13 -18 -18 -17 -18 2 -43 -9 -43 -19 0 -6 -3 -7 -7 -4 -3 4 -12 2 -19 -4
-16 -13 -107 -63 -156 -84 -21 -10 -38 -21 -38 -27 0 -5 -4 -7 -9 -3 -5 3 -15
-1 -23 -8 -12 -12 -45 -29 -60 -31 -4 -1 -13 -7 -19 -13 -7 -7 -19 -13 -26
-13 -7 0 -13 -4 -13 -9 0 -5 -13 -12 -30 -16 -16 -4 -30 -10 -30 -14 0 -7 -60
-39 -78 -42 -4 -1 -19 -10 -34 -20 -14 -10 -31 -19 -36 -19 -6 0 -12 -3 -14
-7 -1 -5 -34 -24 -73 -43 -38 -19 -76 -41 -83 -47 -7 -7 -20 -13 -28 -13 -8 0
-14 -5 -14 -11 0 -5 -5 -7 -10 -4 -6 3 -13 -1 -16 -9 -3 -9 -10 -13 -15 -10
-5 3 -22 -4 -38 -15 -16 -12 -33 -21 -38 -21 -5 0 -15 -6 -22 -12 -6 -7 -15
-13 -19 -14 -16 -1 -62 -28 -62 -36 0 -4 -3 -7 -7 -6 -15 4 -83 -34 -77 -44 3
-5 0 -8 -8 -6 -16 3 -89 -31 -100 -47 -4 -5 -11 -10 -15 -10 -16 -1 -73 -30
-73 -38 0 -5 -4 -5 -10 -2 -5 3 -10 2 -10 -3 0 -6 -13 -15 -30 -21 -16 -5 -30
-15 -30 -21 0 -6 -4 -9 -9 -5 -8 4 -76 -29 -91 -45 -3 -3 -36 -21 -75 -40 -38
-19 -72 -38 -73 -42 -2 -5 -8 -6 -13 -2 -5 3 -9 1 -9 -4 0 -8 -42 -25 -47 -19
-1 1 -9 -7 -17 -18 -9 -11 -16 -16 -16 -12 0 5 -13 -1 -29 -12 -16 -12 -33
-21 -39 -21 -5 0 -15 -7 -22 -15 -7 -9 -15 -13 -18 -11 -3 3 -17 -3 -31 -12
-14 -10 -47 -29 -73 -42 -27 -13 -48 -27 -48 -32 0 -5 -4 -7 -8 -4 -5 3 -20
-2 -33 -12 -13 -9 -29 -17 -34 -18 -6 -1 -28 -13 -49 -28 -21 -14 -42 -26 -47
-26 -11 0 -153 -82 -160 -93 -3 -5 -8 -7 -10 -6 -7 5 -69 -26 -69 -34 0 -5 -5
-5 -10 -2 -6 3 -13 -1 -16 -9 -3 -9 -10 -13 -15 -10 -5 3 -9 1 -9 -5 0 -6 -7
-8 -15 -5 -8 4 -17 -1 -21 -10 -3 -9 -10 -14 -14 -11 -5 3 -14 0 -22 -7 -7 -7
-31 -22 -53 -33 -22 -10 -52 -27 -67 -37 -14 -10 -33 -18 -42 -18 -9 0 -16 -4
-16 -10 0 -5 -7 -10 -15 -10 -8 0 -15 -5 -15 -12 0 -6 -3 -8 -6 -5 -4 4 -19
-2 -34 -13 -15 -11 -29 -17 -32 -14 -3 2 -11 -2 -18 -11 -7 -8 -18 -15 -25
-15 -7 0 -18 -7 -25 -15 -7 -8 -20 -15 -30 -15 -9 0 -25 -9 -35 -20 -10 -11
-21 -17 -25 -15 -4 3 -13 -2 -20 -10 -7 -8 -16 -12 -21 -9 -5 3 -9 0 -9 -6 0
-6 -4 -9 -8 -6 -5 3 -19 -4 -30 -15 -12 -11 -22 -17 -22 -15 0 3 -23 -8 -50
-24 -28 -17 -55 -30 -60 -30 -6 0 -10 -5 -10 -11 0 -5 -4 -7 -10 -4 -5 3 -10
1 -10 -4 0 -6 -8 -11 -18 -11 -10 0 -29 -10 -42 -22 -14 -13 -27 -23 -30 -22
-12 1 -60 -21 -60 -28 0 -4 -7 -8 -15 -8 -8 0 -15 -5 -15 -11 0 -5 -4 -8 -9
-4 -5 3 -16 -1 -24 -9 -8 -8 -17 -12 -21 -9 -3 4 -6 1 -6 -6 0 -7 -4 -10 -9
-6 -5 3 -12 1 -16 -4 -3 -6 -27 -20 -53 -33 -26 -13 -49 -26 -52 -29 -7 -8
-44 -22 -52 -21 -5 1 -8 -2 -8 -7 0 -5 -10 -13 -22 -17 -13 -3 -35 -15 -49
-25 -14 -10 -29 -16 -33 -12 -3 3 -6 2 -6 -4 0 -5 -18 -18 -40 -28 -22 -10
-40 -21 -40 -25 0 -4 -6 -7 -12 -7 -7 0 -36 -14 -65 -31 -28 -17 -54 -28 -57
-25 -3 4 -6 2 -6 -4 0 -6 -12 -16 -27 -22 -26 -10 -65 -31 -103 -56 -8 -5 -18
-10 -22 -10 -4 0 -16 -7 -26 -16 -10 -8 -23 -14 -30 -11 -7 2 -12 -1 -12 -7 0
-6 -7 -11 -15 -11 -8 0 -15 -5 -15 -12 0 -6 -3 -9 -6 -5 -3 3 -29 -8 -57 -25
-29 -17 -62 -34 -74 -39 -13 -5 -23 -13 -23 -19 0 -5 -3 -9 -7 -8 -12 4 -73
-26 -73 -35 0 -5 -4 -6 -9 -2 -5 3 -12 1 -16 -4 -7 -12 -64 -41 -79 -41 -6 0
-19 -9 -29 -20 -10 -12 -22 -18 -27 -15 -6 3 -10 1 -10 -4 0 -6 -7 -11 -15
-11 -8 0 -15 -5 -15 -11 0 -5 -4 -8 -10 -4 -5 3 -18 -3 -28 -13 -10 -10 -24
-16 -30 -14 -7 2 -12 -1 -12 -8 0 -6 -4 -8 -10 -5 -5 3 -10 2 -10 -3 0 -8 -65
-45 -82 -46 -4 -1 -16 -8 -26 -16 -10 -8 -24 -16 -31 -18 -7 -1 -20 -9 -28
-17 -8 -8 -23 -15 -34 -15 -10 0 -19 -4 -19 -8 0 -8 -66 -45 -82 -46 -4 -1
-18 -10 -30 -21 -13 -10 -25 -19 -28 -18 -7 1 -84 -38 -90 -46 -3 -3 -11 -7
-19 -9 -8 -2 -27 -12 -41 -22 -15 -11 -30 -17 -33 -13 -4 3 -9 -2 -13 -11 -3
-9 -9 -14 -14 -11 -4 2 -16 -4 -26 -14 -11 -9 -25 -16 -32 -13 -6 2 -12 0 -12
-5 0 -4 -15 -14 -32 -22 -18 -8 -41 -21 -52 -30 -10 -9 -21 -15 -25 -15 -12 3
-81 -36 -81 -46 0 -5 -7 -7 -15 -4 -8 4 -15 1 -15 -6 0 -6 -4 -8 -10 -5 -5 3
-10 1 -10 -4 0 -6 -7 -11 -15 -11 -8 0 -15 -5 -15 -11 0 -5 -4 -8 -9 -5 -5 3
-14 -1 -21 -9 -7 -8 -16 -12 -21 -9 -5 3 -9 0 -9 -6 0 -6 -4 -9 -9 -5 -6 3
-14 -3 -20 -12 -5 -10 -12 -17 -15 -16 -11 4 -96 -38 -96 -48 0 -6 -4 -8 -9
-4 -5 3 -12 1 -16 -5 -4 -6 -10 -8 -15 -5 -4 3 -11 -2 -14 -11 -3 -8 -10 -13
-15 -9 -5 3 -13 0 -16 -5 -6 -10 -51 -31 -65 -31 -3 0 -9 -7 -13 -15 -5 -8
-12 -12 -18 -9 -5 4 -9 1 -9 -5 0 -6 -4 -9 -9 -5 -6 3 -14 -3 -20 -12 -5 -10
-13 -17 -18 -16 -15 5 -43 -8 -43 -19 0 -6 -3 -9 -6 -5 -3 3 -24 -5 -45 -19
-21 -13 -39 -21 -39 -17 0 5 -5 0 -11 -10 -6 -9 -14 -15 -20 -12 -5 4 -9 1 -9
-5 0 -6 -4 -9 -9 -5 -6 3 -13 -1 -18 -9 -4 -8 -10 -15 -13 -16 -32 -6 -50 -14
-50 -23 0 -6 -3 -8 -6 -4 -3 3 -23 -4 -43 -16 -20 -13 -54 -31 -76 -42 -22
-11 -46 -26 -53 -32 -7 -7 -19 -13 -26 -13 -8 0 -19 -7 -26 -15 -7 -9 -15 -13
-18 -11 -3 3 -18 -4 -33 -15 -16 -11 -29 -17 -29 -12 0 4 -4 4 -8 -2 -8 -12
-19 -18 -150 -87 -53 -28 -100 -55 -103 -60 -3 -6 -9 -10 -12 -10 -15 1 -67
-23 -67 -30 0 -4 -7 -8 -15 -8 -8 0 -15 -5 -15 -11 0 -5 -4 -7 -10 -4 -5 3
-10 1 -10 -5 0 -6 -4 -9 -9 -5 -5 3 -17 -2 -25 -11 -9 -8 -16 -12 -16 -7 0 4
-4 3 -8 -2 -4 -6 -20 -17 -37 -25 -16 -8 -32 -17 -35 -20 -6 -6 -143 -78 -187
-99 -18 -8 -33 -19 -33 -23 0 -4 -9 -8 -20 -8 -11 0 -20 -5 -20 -11 0 -5 -4
-7 -10 -4 -5 3 -10 2 -10 -3 0 -8 -65 -45 -82 -46 -4 -1 -16 -9 -28 -18 -11
-10 -20 -15 -20 -12 0 7 -60 -27 -78 -43 -7 -7 -18 -13 -24 -13 -5 0 -24 -10
-41 -22 -18 -13 -33 -21 -34 -18 -1 3 -13 -4 -25 -15 -13 -10 -23 -18 -23 -16
0 2 -10 1 -23 -3 -12 -4 -22 -12 -22 -17 0 -5 -9 -9 -20 -9 -10 0 -24 -8 -29
-17 -6 -10 -11 -15 -11 -10 0 4 -18 -4 -39 -17 -21 -14 -41 -23 -43 -20 -3 2
-11 -2 -18 -11 -7 -8 -19 -15 -26 -15 -8 0 -14 -4 -14 -10 0 -5 -3 -9 -7 -8
-15 3 -63 -22 -63 -32 0 -6 -4 -9 -9 -5 -5 3 -12 1 -16 -5 -4 -6 -10 -8 -15
-5 -4 3 -11 -2 -14 -11 -4 -9 -9 -14 -13 -11 -3 4 -18 -2 -33 -13 -16 -11 -33
-20 -39 -20 -6 0 -11 -4 -11 -10 0 -5 -3 -9 -7 -8 -11 4 -113 -54 -113 -63 0
-5 -7 -6 -15 -3 -8 4 -15 1 -15 -6 0 -6 -4 -9 -9 -5 -6 3 -13 -1 -18 -9 -4 -8
-12 -15 -16 -15 -15 0 -67 -26 -67 -34 0 -5 -4 -6 -9 -3 -5 3 -14 -1 -21 -9
-7 -8 -18 -15 -25 -15 -7 0 -18 -7 -25 -15 -7 -8 -16 -12 -21 -9 -5 3 -9 0 -9
-6 0 -6 -4 -9 -9 -5 -6 3 -14 -3 -20 -12 -6 -10 -11 -14 -11 -10 0 10 -100
-45 -100 -55 0 -4 -6 -5 -13 -2 -7 2 -21 -4 -31 -15 -10 -11 -23 -18 -27 -15
-5 3 -9 0 -9 -7 0 -7 -3 -9 -6 -6 -4 4 -20 -3 -35 -14 -16 -11 -29 -17 -29
-12 0 4 -5 0 -11 -10 -6 -9 -14 -15 -18 -13 -4 3 -17 -3 -27 -13 -11 -9 -25
-16 -32 -13 -6 2 -12 -1 -12 -8 0 -6 -4 -9 -9 -6 -5 3 -14 -1 -21 -9 -7 -8
-19 -15 -26 -15 -8 0 -14 -4 -14 -9 0 -8 -37 -24 -52 -22 -5 1 -8 -4 -8 -9 0
-6 -7 -10 -15 -10 -8 0 -15 -5 -15 -11 0 -5 -4 -8 -9 -5 -5 3 -14 -1 -21 -9
-7 -8 -16 -12 -21 -9 -5 3 -9 2 -9 -3 0 -9 -56 -36 -65 -31 -4 2 -11 -5 -16
-14 -6 -10 -18 -18 -28 -18 -9 0 -27 -9 -39 -20 -12 -12 -22 -18 -22 -14 0 4
-8 0 -18 -9 -10 -10 -22 -14 -25 -10 -4 3 -7 1 -7 -6 0 -7 -4 -9 -10 -6 -5 3
-10 2 -10 -3 0 -6 -13 -15 -30 -21 -16 -5 -30 -15 -30 -22 0 -7 -3 -10 -6 -6
-8 8 -104 -42 -104 -54 0 -4 -6 -6 -13 -3 -7 2 -23 -5 -35 -16 -12 -11 -22
-18 -22 -14 0 3 -7 1 -15 -6 -8 -7 -15 -9 -15 -4 -1 5 -9 -1 -20 -14 -10 -13
-23 -23 -27 -23 -18 1 -43 -11 -43 -20 0 -6 -5 -7 -10 -4 -5 3 -10 1 -10 -4 0
-6 -9 -11 -20 -11 -11 0 -20 -4 -20 -10 0 -5 -6 -10 -14 -10 -8 0 -21 -7 -30
-15 -8 -9 -19 -16 -23 -17 -27 -4 -43 -12 -43 -20 0 -5 -4 -7 -9 -4 -5 4 -11
3 -13 -2 -1 -4 -33 -23 -70 -42 -38 -19 -68 -38 -68 -43 0 -4 -5 -5 -11 -2 -6
4 -21 -3 -35 -16 -13 -12 -24 -19 -24 -14 0 4 -8 1 -17 -7 -10 -8 -33 -21 -50
-29 -18 -8 -33 -17 -33 -21 0 -5 -8 -8 -19 -8 -10 0 -24 -7 -31 -15 -7 -8 -19
-15 -26 -15 -8 0 -14 -5 -14 -12 0 -6 -3 -8 -6 -5 -4 4 -19 -2 -33 -12 -14 -9
-41 -23 -58 -30 -18 -8 -33 -18 -33 -24 0 -6 -3 -7 -6 -4 -4 4 -19 -2 -34 -13
-16 -11 -32 -20 -38 -20 -5 0 -15 -7 -22 -15 -7 -8 -16 -13 -20 -10 -4 2 -18
-4 -30 -15 -12 -11 -27 -17 -31 -14 -5 3 -9 0 -9 -5 0 -6 -7 -11 -15 -11 -8 0
-15 -5 -15 -11 0 -5 -4 -8 -10 -4 -5 3 -18 -3 -30 -15 -11 -11 -23 -21 -27
-22 -32 -6 -43 -12 -43 -20 0 -5 -4 -6 -10 -3 -5 3 -10 1 -10 -5 0 -6 -4 -9
-9 -6 -5 3 -14 -1 -21 -9 -7 -8 -16 -12 -21 -9 -5 3 -9 1 -9 -4 0 -6 -18 -17
-39 -25 -22 -9 -42 -21 -46 -27 -3 -6 -10 -8 -14 -6 -4 3 -18 -4 -29 -15 -12
-11 -22 -17 -22 -14 0 4 -15 -4 -32 -17 -18 -13 -35 -22 -38 -20 -3 1 -13 -5
-22 -13 -10 -8 -18 -12 -18 -9 0 3 -12 -3 -27 -13 -16 -10 -49 -29 -75 -42
-27 -12 -48 -27 -48 -32 0 -5 -3 -8 -7 -7 -15 4 -53 -13 -53 -23 0 -6 -4 -8
-9 -5 -5 3 -14 -1 -21 -8 -6 -8 -25 -18 -41 -21 -16 -4 -29 -11 -29 -16 0 -5
-7 -9 -15 -9 -8 0 -15 -6 -15 -12 0 -10 -2 -10 -9 0 -4 8 -11 13 -15 13 -9 -1
-40 12 -46 19 -3 3 -22 14 -42 23 -20 10 -40 22 -43 27 -4 6 -11 8 -16 5 -5
-4 -9 -1 -9 6 0 7 -3 9 -6 6 -4 -3 -18 2 -32 13 -13 11 -28 17 -33 14 -5 -3
-9 0 -9 5 0 6 -7 11 -15 11 -8 0 -15 4 -15 8 0 5 -25 19 -55 33 -30 13 -55 28
-55 32 0 5 -4 6 -9 3 -5 -3 -14 1 -21 9 -7 8 -18 15 -26 15 -7 0 -20 7 -28 16
-9 8 -16 12 -16 7 0 -4 -4 -3 -8 2 -4 6 -29 21 -57 35 -27 14 -53 29 -57 35
-4 5 -10 7 -13 3 -4 -3 -15 2 -26 13 -11 11 -24 17 -29 14 -6 -4 -13 1 -16 9
-3 9 -10 14 -14 11 -5 -3 -12 0 -15 5 -7 11 -58 34 -62 28 -1 -2 -12 7 -25 20
-14 12 -27 20 -30 17 -3 -3 -11 1 -18 10 -7 8 -18 15 -24 15 -7 0 -18 6 -25
13 -6 6 -15 13 -19 13 -24 5 -52 17 -52 23 0 4 -16 13 -35 21 -19 8 -35 18
-35 22 0 5 -4 7 -9 4 -5 -3 -14 0 -19 7 -6 7 -27 19 -47 27 -19 7 -35 18 -35
22 0 5 -4 6 -10 3 -5 -3 -10 -2 -10 3 0 9 -37 25 -52 23 -5 -1 -8 4 -8 11 0 6
-3 9 -6 5 -4 -3 -13 1 -21 9 -8 8 -19 12 -24 9 -5 -4 -9 -2 -9 2 0 5 -21 20
-47 33 -27 14 -60 33 -74 42 -14 10 -29 15 -33 11 -3 -3 -6 -1 -6 5 0 7 -7 12
-15 12 -8 0 -15 5 -15 12 0 6 -3 8 -6 5 -4 -4 -19 2 -34 13 -15 11 -30 17 -34
13 -3 -3 -6 -1 -6 6 0 7 -5 9 -10 6 -6 -3 -13 1 -16 10 -4 9 -13 14 -21 11 -7
-3 -16 1 -19 8 -3 8 -17 17 -32 21 -15 4 -30 12 -34 18 -4 7 -11 12 -15 13
-17 1 -103 49 -103 57 0 4 -4 6 -9 3 -5 -3 -20 4 -35 15 -14 11 -26 17 -26 12
0 -4 -4 -3 -8 2 -7 10 -36 26 -157 89 -33 17 -62 34 -63 39 -2 4 -8 5 -13 1
-5 -3 -12 1 -15 10 -3 8 -18 18 -34 21 -16 3 -34 13 -40 21 -7 7 -16 12 -20 9
-4 -3 -13 2 -20 10 -7 8 -17 15 -22 15 -6 0 -23 9 -39 21 -16 11 -29 17 -29
13 0 -4 -10 2 -23 14 -13 12 -26 19 -30 16 -3 -3 -15 3 -27 14 -12 11 -28 18
-36 15 -9 -3 -14 1 -14 12 0 9 -4 14 -9 11 -5 -3 -20 3 -33 14 -14 11 -28 16
-32 13 -3 -3 -6 0 -6 7 0 7 -3 10 -6 7 -4 -3 -18 2 -32 13 -13 11 -28 17 -33
14 -5 -3 -9 -1 -9 4 0 9 -65 46 -82 47 -4 0 -16 8 -27 17 -11 9 -22 14 -25 11
-3 -4 -6 -1 -6 6 0 7 -6 11 -14 8 -8 -3 -17 1 -20 9 -3 8 -14 14 -25 14 -10 0
-22 7 -25 16 -3 8 -10 13 -14 10 -5 -3 -19 4 -31 15 -12 11 -25 18 -30 15 -4
-3 -18 4 -30 15 -12 11 -30 21 -41 22 -11 1 -20 4 -20 8 0 6 -95 59 -167 93
-13 6 -23 14 -23 19 0 4 -7 7 -16 7 -8 0 -22 7 -31 15 -8 8 -18 13 -23 10 -4
-3 -11 2 -14 11 -3 8 -10 12 -16 9 -5 -3 -10 -1 -10 6 0 7 -3 9 -6 6 -4 -4
-19 2 -34 13 -15 11 -30 17 -34 13 -3 -3 -6 -1 -6 5 0 7 -7 12 -15 12 -8 0
-15 5 -15 12 0 6 -3 8 -7 5 -3 -4 -11 -3 -17 2 -27 22 -104 60 -110 54 -3 -4
-6 -1 -6 5 0 7 -18 20 -40 29 -22 10 -40 21 -40 25 0 5 -9 8 -20 8 -11 0 -20
3 -20 8 0 4 -15 13 -32 21 -18 8 -50 25 -70 38 -21 13 -38 21 -38 18 0 -3 -10
3 -22 14 -11 11 -24 18 -29 16 -4 -3 -14 1 -22 9 -8 8 -17 12 -21 9 -3 -4 -6
-2 -6 3 0 6 -19 19 -42 29 -24 10 -61 30 -83 43 -22 14 -45 25 -52 25 -7 0
-15 7 -17 14 -3 8 -10 11 -16 8 -5 -3 -10 -1 -10 5 0 6 -4 8 -10 5 -5 -3 -10
-1 -10 4 0 6 -5 11 -10 11 -6 0 -28 11 -49 24 -21 14 -42 22 -45 19 -3 -4 -6
-2 -6 3 0 6 -16 16 -35 24 -19 8 -35 18 -35 24 0 5 -3 7 -6 3 -4 -3 -13 1 -21
9 -8 8 -19 12 -24 9 -5 -4 -9 -2 -9 4 0 10 -29 23 -43 18 -5 -1 -13 6 -18 16
-6 9 -14 15 -20 12 -5 -4 -9 -1 -9 5 0 6 -5 8 -10 5 -6 -3 -13 1 -16 9 -3 9
-14 16 -24 16 -10 0 -23 7 -30 15 -7 9 -15 13 -18 11 -3 -3 -17 3 -32 14 -16
11 -32 20 -38 20 -5 0 -15 7 -22 15 -7 8 -16 13 -20 10 -5 -3 -12 0 -15 5 -7
11 -55 33 -64 30 -2 -1 -8 5 -13 14 -5 9 -13 14 -19 11 -5 -4 -9 -3 -9 2 0 4
-15 14 -32 22 -18 8 -41 21 -50 29 -10 8 -18 12 -18 7 0 -4 -6 -3 -12 3 -7 5
-40 25 -73 43 -33 18 -63 37 -67 43 -4 6 -8 7 -8 2 0 -5 -7 -3 -15 4 -8 7 -15
9 -15 4 0 -5 -5 -2 -10 6 -5 8 -13 15 -17 15 -13 1 -76 36 -95 53 -10 8 -18
12 -18 8 0 -4 -13 2 -28 13 -16 11 -35 21 -43 23 -8 2 -16 6 -19 9 -9 11 -95
53 -103 51 -4 -1 -10 5 -13 13 -4 8 -14 15 -24 15 -10 0 -23 7 -30 15 -7 8
-18 15 -25 15 -7 0 -24 9 -39 21 -14 11 -26 18 -26 14 0 -3 -13 3 -29 14 -15
11 -31 18 -35 14 -3 -3 -6 -1 -6 5 0 7 -7 12 -15 12 -8 0 -15 5 -15 12 0 6 -3
8 -6 5 -4 -3 -18 3 -32 13 -13 11 -33 20 -43 20 -11 0 -19 4 -19 8 0 9 -71 47
-82 44 -5 -1 -8 2 -8 7 0 5 -10 13 -22 17 -13 3 -30 13 -40 21 -9 8 -23 15
-31 17 -8 1 -23 8 -32 16 -9 8 -24 15 -33 16 -8 2 -18 8 -22 14 -4 6 -13 12
-21 13 -8 2 -25 10 -39 20 -13 9 -30 17 -37 17 -7 0 -13 5 -13 11 0 5 -4 7
-10 4 -5 -3 -10 -2 -10 4 0 6 -11 13 -25 17 -14 3 -25 10 -25 15 0 5 -3 8 -7
7 -11 -3 -77 32 -85 46 -4 6 -10 7 -14 3 -4 -4 -17 2 -30 14 -12 11 -28 21
-36 23 -8 1 -27 9 -41 19 -15 9 -31 17 -37 17 -5 0 -10 3 -10 8 0 7 -76 45
-93 46 -4 1 -11 7 -16 14 -4 7 -15 14 -23 16 -9 1 -22 7 -29 12 -32 25 -147
83 -152 77 -4 -3 -9 2 -13 11 -3 9 -13 16 -21 16 -8 0 -28 9 -44 21 -16 11
-29 18 -29 15 0 -3 -8 1 -17 9 -10 8 -20 14 -23 13 -3 -2 -19 7 -37 20 -17 12
-35 22 -40 22 -5 0 -15 6 -22 13 -6 6 -15 12 -19 12 -4 1 -26 13 -49 28 -24
15 -49 27 -58 27 -8 0 -15 4 -15 9 0 8 -27 19 -41 17 -4 -1 -17 8 -28 18 -12
11 -28 21 -36 22 -8 1 -22 9 -31 18 -8 9 -20 14 -25 11 -5 -4 -9 -2 -9 3 0 10
-91 58 -103 54 -4 -1 -10 5 -13 13 -3 8 -10 12 -15 9 -5 -3 -9 0 -9 6 0 6 -4
9 -9 6 -5 -3 -14 1 -21 9 -7 8 -16 13 -20 10 -4 -3 -13 2 -20 10 -7 8 -19 15
-26 15 -8 0 -14 5 -14 11 0 5 -4 8 -9 5 -5 -3 -14 1 -21 9 -7 8 -16 12 -21 9
-5 -3 -9 0 -9 6 0 6 -4 9 -8 6 -5 -3 -21 6 -36 19 -16 14 -33 22 -37 19 -5 -3
-9 0 -9 6 0 6 -4 8 -10 5 -5 -3 -10 -1 -10 4 0 6 -6 11 -14 11 -7 0 -19 7 -26
15 -7 8 -16 13 -20 10 -5 -3 -11 -1 -14 4 -4 5 -27 19 -54 32 -26 12 -49 25
-52 28 -3 3 -10 7 -17 8 -6 1 -28 14 -49 28 -21 14 -48 28 -61 31 -13 4 -23
10 -23 16 0 5 -4 7 -9 3 -5 -3 -12 -1 -16 4 -3 5 -18 16 -33 24 -15 7 -48 26
-73 40 -26 14 -49 23 -53 20 -3 -4 -6 -2 -6 4 0 5 -18 18 -40 28 -22 10 -40
23 -40 28 0 6 -3 7 -6 4 -4 -4 -19 2 -33 11 -32 22 -84 46 -93 44 -5 -1 -8 2
-8 6 0 8 -35 28 -53 30 -4 1 -15 8 -23 17 -9 8 -21 15 -28 15 -8 0 -19 7 -26
15 -7 8 -16 12 -21 9 -5 -3 -9 0 -9 6 0 6 -4 9 -9 5 -6 -3 -14 3 -20 12 -5 10
-11 17 -13 16 -8 -6 -48 10 -48 19 0 5 -4 7 -9 3 -5 -3 -12 -1 -16 4 -3 5 -18
16 -33 24 -15 7 -53 28 -84 45 -32 18 -58 29 -58 25 0 -4 -5 0 -11 10 -5 9
-18 17 -28 17 -10 0 -24 6 -30 14 -7 8 -23 17 -36 20 -14 4 -25 11 -25 17 0 6
-4 7 -10 4 -5 -3 -10 -1 -10 5 0 6 -4 8 -10 5 -6 -3 -10 -2 -10 3 0 4 -16 14
-35 22 -19 8 -35 18 -35 24 0 5 -3 7 -6 3 -3 -3 -24 5 -45 19 -21 13 -43 24
-48 24 -5 0 -14 7 -21 15 -7 9 -15 13 -18 11 -3 -3 -17 3 -32 14 -16 11 -32
20 -38 20 -5 0 -15 7 -22 15 -7 9 -15 13 -18 11 -3 -3 -18 4 -33 15 -16 11
-29 17 -29 12 0 -4 -6 -1 -13 8 -7 9 -23 20 -37 24 -14 4 -27 11 -30 14 -3 4
-39 24 -80 45 -41 22 -78 44 -82 50 -4 6 -8 7 -8 3 0 -5 -13 1 -28 12 -16 11
-35 21 -43 23 -8 2 -17 8 -21 13 -4 6 -11 10 -15 10 -13 1 -98 47 -104 57 -3
4 -16 10 -29 13 -12 2 -30 11 -40 20 -9 8 -21 15 -27 15 -6 0 -16 7 -23 15 -7
8 -16 13 -20 10 -4 -3 -13 2 -20 10 -7 8 -16 12 -21 9 -5 -3 -9 -2 -9 3 0 4
-15 14 -32 22 -18 8 -40 20 -48 27 -8 7 -27 16 -42 19 -16 4 -28 10 -28 14 0
4 -22 18 -50 32 -27 13 -50 27 -50 32 0 4 -7 7 -16 7 -9 0 -28 9 -44 20 -15
11 -29 17 -32 14 -3 -2 -11 2 -18 11 -7 8 -18 15 -25 15 -7 0 -18 7 -25 15 -7
8 -16 12 -21 9 -5 -3 -9 -1 -9 3 0 5 -20 17 -45 27 -25 11 -45 22 -45 26 0 7
-30 18 -47 18 -3 0 -9 5 -12 10 -3 5 -42 28 -86 51 -90 47 -157 84 -227 124
-27 15 -48 25 -48 22 0 -2 -9 3 -20 12 -10 9 -27 18 -37 19 -10 2 -19 8 -21
13 -2 6 -8 11 -14 11 -5 0 -23 9 -39 21 -16 11 -29 17 -29 13 0 -4 -8 -1 -17
8 -10 8 -29 20 -43 26 -14 7 -43 23 -65 36 -22 13 -43 22 -47 19 -5 -2 -8 1
-8 6 0 6 -7 11 -15 11 -8 0 -15 5 -15 10 0 6 -9 10 -19 10 -11 0 -21 3 -23 8
-3 8 -29 22 -145 82 -46 23 -83 46 -83 51 0 5 -9 9 -19 9 -11 0 -27 8 -37 18
-10 9 -20 16 -23 16 -10 -2 -36 10 -49 23 -7 7 -20 13 -28 13 -8 0 -14 5 -14
10 0 6 -8 10 -17 10 -10 0 -29 9 -43 20 -14 11 -30 20 -37 20 -6 0 -13 3 -15
8 -1 4 -28 19 -58 35 -30 15 -80 41 -110 58 -103 57 -135 73 -143 74 -4 0 -12
6 -16 14 -5 7 -13 11 -19 7 -6 -3 -14 -1 -19 6 -4 7 -33 25 -63 41 -30 15 -73
38 -95 50 -22 13 -76 43 -120 66 -44 24 -108 59 -142 77 -42 23 -64 30 -69 22z
m13122 -11133 c32 -30 61 -55 66 -55 4 0 8 -7 8 -17 0 -9 3 -13 7 -10 3 4 15
-5 25 -20 10 -16 18 -25 18 -22 0 4 58 -50 129 -120 71 -69 143 -138 160 -153
17 -15 31 -32 31 -38 0 -5 4 -10 9 -10 5 0 60 -51 124 -112 277 -273 377 -368
386 -368 5 0 11 -9 14 -21 3 -12 10 -18 15 -15 5 3 12 -4 15 -15 3 -12 10 -18
16 -15 5 4 13 -3 16 -15 4 -11 9 -19 11 -16 2 2 60 -52 128 -119 68 -68 126
-121 130 -117 3 3 6 2 6 -4 0 -5 11 -22 25 -37 14 -15 25 -25 25 -23 0 2 69
-65 153 -147 290 -285 537 -523 537 -518 0 2 10 -8 22 -24 12 -16 27 -32 33
-36 5 -3 63 -58 129 -122 65 -64 119 -116 120 -116 0 0 71 -69 157 -153 86
-83 266 -258 399 -387 133 -129 272 -265 310 -302 37 -37 71 -64 74 -61 3 4 6
2 6 -4 0 -5 18 -28 40 -51 22 -22 40 -40 40 -39 0 1 77 -72 170 -164 94 -91
170 -165 170 -164 0 1 66 -63 147 -143 l148 -144 0 -609 c0 -405 -3 -610 -10
-612 -5 -2 -1899 -4 -4207 -4 l-4198 0 0 677 0 676 61 55 c34 30 77 69 95 87
19 17 36 32 39 32 2 0 26 20 52 45 26 25 63 55 80 68 18 12 33 28 33 35 0 6 5
12 11 12 6 0 16 6 23 13 7 6 44 39 81 72 38 33 86 77 107 97 21 21 38 34 38
31 0 -4 16 10 35 30 19 20 35 35 35 32 0 -2 13 8 28 23 16 15 59 54 97 87 38
33 79 69 91 80 12 11 48 43 79 70 32 28 76 67 99 87 22 20 52 46 66 58 82 70
147 128 170 150 14 14 41 38 60 54 19 16 62 53 95 82 33 29 70 62 83 73 48 41
156 137 193 173 22 21 39 34 39 31 0 -4 20 14 45 40 24 26 47 47 50 47 7 0 55
42 112 98 24 23 47 42 51 42 4 0 24 18 45 40 20 22 40 41 44 42 5 1 24 16 43
34 19 18 46 42 60 54 14 11 51 44 84 73 32 29 81 72 109 97 29 25 62 55 75 68
12 12 25 22 28 22 3 0 23 18 45 40 22 22 43 40 46 40 3 0 22 17 42 37 20 21
40 37 44 35 5 -1 11 7 14 18 3 11 9 18 13 15 5 -3 16 5 24 17 9 12 16 20 16
16 0 -5 70 55 136 119 18 17 35 29 37 26 3 -2 8 5 12 16 3 12 13 21 21 21 7 0
19 9 26 20 7 11 16 20 21 20 4 0 25 18 47 40 22 22 42 40 45 40 3 0 13 8 23
18 16 15 66 59 200 177 19 17 52 47 74 68 22 20 41 37 44 37 2 0 12 8 22 18
10 9 47 42 82 72 35 30 81 72 102 92 21 20 38 35 38 32 0 -2 20 16 45 40 25
25 45 42 45 39 0 -3 15 11 34 31 19 20 37 36 41 36 3 0 26 20 52 45 25 25 47
45 50 45 2 0 18 14 35 30 16 17 34 30 39 30 5 0 9 7 9 15 0 8 4 14 9 13 5 -2
24 13 42 32 19 19 35 34 37 32 1 -1 15 9 30 23 15 13 46 42 69 64 23 21 45 36
48 33 3 -3 5 2 5 12 0 9 5 14 10 11 6 -3 13 1 16 9 3 9 8 16 10 16 2 0 29 -25
60 -55z"/>
</g>
</svg>
